<?xml version="1.0" encoding="UTF-8"?>
<svg version="1.1" viewBox="0 0 21 21" xmlns="http://www.w3.org/2000/svg">
<g fill="none" fill-rule="evenodd">
<path d="m21 2.25v16.5c0 0.625-0.21875 1.1562-0.65625 1.5937s-0.96875 0.65625-1.5937 0.65625h-3.9844v-8.2969h2.8125l0.42187-3.1875h-3.2344v-2.0156c0-0.5 0.09375-0.875 0.28125-1.125 0.25-0.28125 0.67187-0.42187 1.2656-0.42187h1.6875v-2.8125c-0.65625-0.09375-1.4687-0.14062-2.4375-0.14062-1.25 0-2.2422 0.36719-2.9766 1.1016s-1.1016 1.7578-1.1016 3.0703v2.3437h-2.8594v3.1875h2.8594v8.2969h-9.2344c-0.625 0-1.1562-0.21875-1.5937-0.65625-0.4375-0.4375-0.65625-0.96875-0.65625-1.5937v-16.5c0-0.625 0.21875-1.1562 0.65625-1.5937 0.4375-0.4375 0.96875-0.65625 1.5937-0.65625h16.5c0.625 0 1.1562 0.21875 1.5937 0.65625 0.4375 0.4375 0.65625 0.96875 0.65625 1.5937z" fill="#000"/>
</g>
</svg>
