<?xml version="1.0" encoding="UTF-8"?>
<svg version="1.1" viewBox="0 0 24 24" xmlns="http://www.w3.org/2000/svg">
<g fill="none" fill-rule="evenodd">
<path d="m22.875 5.0068e-5c0.3125 0 0.57812 0.10937 0.79687 0.32812 0.21875 0.21875 0.32812 0.48437 0.32812 0.79687 0 0.3125-0.10937 0.57812-0.32812 0.79687l-8.6719 8.6719v12.281c0 0.46875-0.20312 0.80469-0.60937 1.0078s-0.79687 0.17969-1.1719-0.070312l-3.75-2.625c-0.3125-0.25-0.46875-0.5625-0.46875-0.9375v-9.6562l-8.6719-8.6719c-0.21875-0.21875-0.32812-0.48437-0.32812-0.79687 0-0.3125 0.10937-0.57812 0.32812-0.79687 0.21875-0.21875 0.48437-0.32812 0.79687-0.32812h21.75z" fill="#fff"/>
</g>
</svg>
