<?xml version="1.0" encoding="UTF-8"?>
<svg version="1.1" viewBox="0 0 21 21" xmlns="http://www.w3.org/2000/svg">
<g fill="none" fill-rule="evenodd">
<path d="m19.5 0c0.40625 0 0.75781 0.14844 1.0547 0.44531 0.29687 0.29687 0.44531 0.64844 0.44531 1.0547v18c0 0.40625-0.14844 0.75781-0.44531 1.0547-0.29687 0.29687-0.64844 0.44531-1.0547 0.44531h-18c-0.40625 0-0.75781-0.14844-1.0547-0.44531-0.29687-0.29687-0.44531-0.64844-0.44531-1.0547v-18c0-0.40625 0.14844-0.75781 0.44531-1.0547 0.29687-0.29687 0.64844-0.44531 1.0547-0.44531h18zm-16.266 18h3.1406v-10.031h-3.1406v10.031zm1.5469-11.391c0.5 0 0.92969-0.17969 1.2891-0.53906s0.53906-0.78125 0.53906-1.2656c0-0.48437-0.17969-0.90625-0.53906-1.2656s-0.78906-0.53906-1.2891-0.53906-0.92187 0.17969-1.2656 0.53906-0.51562 0.78125-0.51562 1.2656c0 0.48437 0.17187 0.90625 0.51562 1.2656s0.76562 0.53906 1.2656 0.53906zm13.219 11.391v-5.4844c0-1.5625-0.21875-2.7031-0.65625-3.4219-0.59375-0.90625-1.6094-1.3594-3.0469-1.3594-0.71875 0-1.3594 0.17187-1.9219 0.51562-0.46875 0.28125-0.8125 0.64062-1.0312 1.0781h-0.046875v-1.3594h-3v10.031h3.0937v-4.9687c0-0.78125 0.10937-1.375 0.32812-1.7812 0.3125-0.53125 0.82812-0.79687 1.5469-0.79687 0.71875 0 1.1875 0.29687 1.4062 0.89062 0.15625 0.375 0.23437 0.96875 0.23437 1.7812v4.875h3.0937z" fill="#000"/>
</g>
</svg>
