<?xml version="1.0" encoding="UTF-8"?>
<svg version="1.1" viewBox="0 0 226 79" xmlns="http://www.w3.org/2000/svg">
<g fill="none" fill-rule="evenodd">
<rect id="rounded" width="63.439" height="64" rx="10" fill="#07c"/>
<path id="sg" d="m35.882 43.855c0 1.0885-0.20231 2.0482-0.60693 2.8789-0.40462 0.83073-0.97606 1.5254-1.7143 2.084-0.73826 0.5586-1.6114 0.97754-2.6194 1.2568s-2.1012 0.41895-3.2796 0.41895c-0.70987 0-1.3878-0.05371-2.0338-0.16113s-1.2245-0.24349-1.7356-0.4082c-0.5111-0.16471-0.93702-0.33301-1.2778-0.50488-0.34074-0.17188-0.58919-0.33301-0.74536-0.4834-0.15617-0.15039-0.27685-0.38672-0.36203-0.70898-0.085184-0.32227-0.12778-0.7985-0.12778-1.4287 0-0.41537 0.014197-0.74837 0.042592-0.99902s0.070986-0.45117 0.12778-0.60156 0.12778-0.25065 0.21296-0.30078c0.085184-0.05013 0.19166-0.075195 0.31944-0.075195 0.15617 0 0.38687 0.089517 0.69212 0.26855 0.30524 0.17904 0.68502 0.37598 1.1393 0.59082s0.98316 0.41536 1.5865 0.60156c0.60339 0.1862 1.2884 0.2793 2.0551 0.2793 0.48271 0 0.91217-0.05013 1.2884-0.15039 0.37623-0.10026 0.70276-0.24349 0.97961-0.42969 0.27685-0.1862 0.48626-0.42252 0.62823-0.70898s0.21296-0.61588 0.21296-0.98828c0-0.42969-0.13132-0.7985-0.39397-1.1064-0.26265-0.30794-0.61048-0.5765-1.0435-0.80566s-0.92282-0.44401-1.4694-0.64453c-0.5466-0.20052-1.1074-0.42252-1.6824-0.66602s-1.1358-0.52278-1.6824-0.83789c-0.5466-0.31511-1.0364-0.70182-1.4694-1.1602-0.43302-0.45834-0.78085-1.0098-1.0435-1.6543-0.26265-0.64453-0.39397-1.418-0.39397-2.3203 0-0.91667 0.17746-1.7581 0.5324-2.5244s0.86603-1.4215 1.5333-1.9658c0.66728-0.54427 1.4801-0.9668 2.4384-1.2676 0.95832-0.30078 2.0338-0.45117 3.2263-0.45117 0.59629 0 1.1748 0.042968 1.7356 0.12891 0.5608 0.085938 1.0683 0.19336 1.5227 0.32227 0.45432 0.12891 0.83764 0.26855 1.15 0.41895 0.31234 0.15039 0.53595 0.2793 0.67082 0.38672s0.23071 0.21484 0.28749 0.32227 0.099381 0.23633 0.12778 0.38672 0.05324 0.33659 0.074536 0.55859c0.021296 0.22201 0.031944 0.49772 0.031944 0.82715 0 0.38672-0.010648 0.70182-0.031944 0.94531s-0.056789 0.43685-0.10648 0.58008-0.11713 0.23991-0.20231 0.29004c-0.085184 0.05013-0.18456 0.075195-0.29814 0.075195-0.12778 0-0.32654-0.075195-0.59629-0.22559-0.26975-0.15039-0.60693-0.31152-1.0116-0.4834s-0.87313-0.33301-1.4055-0.4834c-0.5324-0.15039-1.1393-0.22559-1.8208-0.22559-0.48271 0-0.90153 0.05013-1.2565 0.15039-0.35493 0.10026-0.64597 0.24349-0.87313 0.42969-0.22716 0.1862-0.39752 0.40462-0.5111 0.65527s-0.17037 0.5192-0.17037 0.80566c0 0.44401 0.13487 0.8164 0.40462 1.1172 0.26975 0.30078 0.62468 0.56575 1.0648 0.79492s0.94057 0.44401 1.5014 0.64453c0.5608 0.20052 1.1287 0.41894 1.7037 0.65527s1.1429 0.51204 1.7037 0.82715c0.5608 0.31511 1.0612 0.70182 1.5014 1.1602s0.79505 1.0062 1.0648 1.6436c0.26975 0.63737 0.40462 1.3929 0.40462 2.2666zm21.147-12.418c0 0.6875-0.078084 1.196-0.23426 1.5254-0.15617 0.32943-0.34783 0.49414-0.57499 0.49414h-2.2361c0.31234 0.34375 0.53595 0.73405 0.67082 1.1709 0.13487 0.43685 0.20231 0.8916 0.20231 1.3643 0 1.1172-0.18456 2.109-0.55369 2.9756-0.36913 0.86654-0.89797 1.597-1.5865 2.1914s-1.5191 1.0456-2.4916 1.3535c-0.97252 0.30794-2.055 0.46191-3.2476 0.46191-0.61049 0-1.1926-0.075195-1.7463-0.22559-0.5537-0.15039-0.97961-0.32585-1.2778-0.52637-0.17037 0.1862-0.32299 0.4082-0.45786 0.66602s-0.20231 0.54427-0.20231 0.85938c0 0.41537 0.18101 0.75553 0.54305 1.0205s0.86958 0.41178 1.5227 0.44043l4.6212 0.17188c1.079 0.042969 2.0409 0.19694 2.8856 0.46191 0.84474 0.26498 1.5546 0.63737 2.1296 1.1172s1.0151 1.0563 1.3203 1.7295c0.30524 0.67318 0.45786 1.4394 0.45786 2.2988 0 0.94532-0.20586 1.8369-0.61758 2.6748-0.41172 0.83789-1.0293 1.5648-1.8527 2.1807s-1.8563 1.1029-3.0986 1.4609c-1.2423 0.35807-2.6939 0.53711-4.355 0.53711-1.6185 0-2.9992-0.1289-4.1421-0.38672s-2.0799-0.61588-2.8111-1.0742c-0.73116-0.45834-1.2636-1.0062-1.5972-1.6436-0.33364-0.63737-0.50045-1.3356-0.50045-2.0947 0-0.47266 0.060338-0.92383 0.18102-1.3535 0.12068-0.42969 0.29814-0.84147 0.5324-1.2354 0.23426-0.39388 0.52175-0.76985 0.86248-1.1279 0.34074-0.35807 0.73116-0.70182 1.1713-1.0312-0.61049-0.32943-1.0825-0.77702-1.4162-1.3428-0.33364-0.56576-0.50045-1.1852-0.50045-1.8584 0-0.84506 0.19166-1.6149 0.57499-2.3096 0.38333-0.69466 0.88023-1.3213 1.4907-1.8799-0.49691-0.5013-0.89443-1.1029-1.1926-1.8047-0.29814-0.70183-0.44721-1.5755-0.44721-2.6211 0-1.1172 0.19521-2.1162 0.58564-2.9971 0.39043-0.88086 0.93347-1.6256 1.6291-2.2344 0.69567-0.60873 1.5262-1.0742 2.4916-1.3965s2.0302-0.4834 3.1944-0.4834c0.59629 0 1.1677 0.035807 1.7143 0.10742 0.5466 0.071615 1.0541 0.17187 1.5227 0.30078h6.0267c0.24135 0 0.43657 0.15755 0.58564 0.47266 0.14907 0.31511 0.22361 0.84505 0.22361 1.5898zm-6.8786 4.5332c0-1.0313-0.28394-1.8333-0.85184-2.4062-0.56789-0.57292-1.37-0.85938-2.4064-0.85938-0.5253 0-0.98671 0.089517-1.3842 0.26855-0.39753 0.17904-0.72761 0.42252-0.99026 0.73047-0.26265 0.30794-0.45786 0.66601-0.58564 1.0742-0.12778 0.40821-0.19166 0.83431-0.19166 1.2783 0 0.97396 0.28394 1.7438 0.85184 2.3096 0.56789 0.56576 1.3558 0.84863 2.3638 0.84863 0.5395 0 1.008-0.085937 1.4055-0.25781 0.39753-0.17188 0.72761-0.4082 0.99026-0.70898 0.26265-0.30078 0.46141-0.64811 0.59629-1.042s0.20231-0.80566 0.20231-1.2354zm1.2565 15.297c0-0.64453-0.25555-1.1387-0.76665-1.4824-0.5111-0.34375-1.2139-0.52995-2.1083-0.55859l-3.812-0.10742c-0.36913 0.27214-0.66372 0.53353-0.88378 0.78418s-0.39752 0.49056-0.5324 0.71973-0.22361 0.45117-0.2662 0.66602c-0.042592 0.21484-0.063888 0.43685-0.063888 0.66602 0 0.71615 0.35848 1.2604 1.0754 1.6328 0.71697 0.3724 1.7285 0.55859 3.0347 0.55859 0.80925 0 1.4907-0.082356 2.0444-0.24707 0.5537-0.16471 1.0009-0.38314 1.3416-0.65527 0.34074-0.27214 0.58209-0.5765 0.72406-0.91309 0.14197-0.33659 0.21296-0.69108 0.21296-1.0635z" fill="#fff"/>
<path id="company" d="m88.471 47.359c0 0.24349-0.0070985 0.45475-0.021296 0.63379-0.014197 0.17904-0.039042 0.32943-0.074536 0.45117-0.035493 0.12175-0.078085 0.22917-0.12778 0.32227-0.049691 0.093099-0.16327 0.22917-0.34073 0.4082-0.17747 0.17904-0.47916 0.40104-0.90508 0.66602-0.42592 0.26498-0.90507 0.5013-1.4375 0.70898-0.5324 0.20768-1.1109 0.37598-1.7356 0.50488-0.62468 0.12891-1.2707 0.19336-1.9379 0.19336-1.3771 0-2.5981-0.22916-3.6629-0.6875-1.0648-0.45834-1.9557-1.1279-2.6726-2.0088-0.71697-0.88086-1.2636-1.9622-1.6398-3.2441-0.37623-1.2819-0.56434-2.7607-0.56434-4.4365 0-1.905 0.2307-3.5413 0.69212-4.9092 0.46141-1.3678 1.0932-2.4886 1.8953-3.3623 0.80215-0.8737 1.7463-1.5218 2.8324-1.9443 1.0861-0.42253 2.2609-0.63379 3.5245-0.63379 0.61049 0 1.2032 0.057291 1.7782 0.17188s1.1038 0.26497 1.5865 0.45117c0.48271 0.1862 0.91217 0.40104 1.2884 0.64453s0.64952 0.45117 0.81989 0.62305c0.17037 0.17188 0.28749 0.30794 0.35138 0.4082 0.063888 0.10026 0.11713 0.21842 0.15972 0.35449 0.042592 0.13607 0.070986 0.29004 0.085184 0.46191 0.014197 0.17188 0.021296 0.38672 0.021296 0.64453 0 0.5586-0.063887 0.94889-0.19166 1.1709-0.12778 0.22201-0.28394 0.33301-0.46851 0.33301-0.21296 0-0.45786-0.11816-0.73471-0.35449s-0.62823-0.49772-1.0541-0.78418c-0.42592-0.28646-0.94057-0.54785-1.544-0.78418s-1.3168-0.35449-2.1402-0.35449c-1.6895 0-2.985 0.65527-3.8865 1.9658s-1.3523 3.2119-1.3523 5.7041c0 1.2461 0.11713 2.3382 0.35138 3.2764 0.23426 0.93816 0.57854 1.7223 1.0329 2.3525 0.45432 0.63021 1.0116 1.0993 1.6717 1.4072 0.66018 0.30794 1.4162 0.46191 2.268 0.46191 0.80925 0 1.5191-0.1289 2.1296-0.38672 0.61049-0.25781 1.1393-0.54069 1.5865-0.84863 0.44722-0.30794 0.82344-0.58724 1.1287-0.83789 0.30524-0.25065 0.54304-0.37598 0.71341-0.37598 0.099382 0 0.18456 0.028646 0.25555 0.085938 0.070987 0.057292 0.13132 0.15397 0.18102 0.29004s0.085184 0.30794 0.10648 0.51562c0.021296 0.20768 0.031944 0.45475 0.031944 0.74121zm20.818-6.9395c0 1.5755-0.20586 3.0257-0.61758 4.3506s-1.0257 2.4671-1.8421 3.4268c-0.81635 0.95964-1.8385 1.708-3.0666 2.2451-1.2281 0.53711-2.6513 0.80566-4.2698 0.80566-1.5759 0-2.9495-0.23633-4.1208-0.70898s-2.1473-1.1602-2.9282-2.0625-1.3629-1.998-1.7463-3.2871c-0.38333-1.2891-0.57499-2.75-0.57499-4.3828 0-1.5755 0.20231-3.0257 0.60693-4.3506s1.0151-2.4671 1.8314-3.4268c0.81635-0.95964 1.835-1.7044 3.056-2.2344 1.221-0.52995 2.6478-0.79492 4.2805-0.79492 1.5759 0 2.9495 0.23633 4.1208 0.70898 1.1713 0.47266 2.1473 1.1602 2.9282 2.0625 0.78085 0.90235 1.3665 1.998 1.7569 3.2871 0.39043 1.2891 0.58564 2.7428 0.58564 4.3613zm-3.7055 0.23633c0-1.0456-0.095831-2.0338-0.2875-2.9648-0.19166-0.93099-0.50755-1.7474-0.94767-2.4492s-1.0364-1.2568-1.7889-1.665c-0.75246-0.40821-1.6895-0.6123-2.8111-0.6123-1.0364 0-1.9273 0.1862-2.6726 0.55859-0.74536 0.3724-1.3594 0.89876-1.8421 1.5791-0.48271 0.68034-0.84119 1.486-1.0754 2.417-0.23426 0.93099-0.35138 1.9479-0.35138 3.0508 0 1.0599 0.095831 2.0553 0.28749 2.9863 0.19166 0.93099 0.5111 1.7438 0.95832 2.4385 0.44722 0.69466 1.047 1.2461 1.7995 1.6543 0.75246 0.40821 1.6895 0.6123 2.8111 0.6123 1.0222 0 1.9095-0.1862 2.662-0.55859s1.37-0.89518 1.8527-1.5684c0.48271-0.67318 0.83764-1.4753 1.0648-2.4062 0.22716-0.93099 0.34074-1.9551 0.34074-3.0723zm36.002 9.6465c0 0.11458-0.028394 0.21126-0.085184 0.29004-0.056789 0.078776-0.14907 0.14681-0.27685 0.2041-0.12778 0.057292-0.30524 0.10026-0.5324 0.12891-0.22716 0.028646-0.5111 0.042969-0.85184 0.042969-0.35493 0-0.64598-0.014323-0.87313-0.042969-0.22716-0.028646-0.40817-0.071614-0.54304-0.12891-0.13488-0.057292-0.23071-0.12533-0.2875-0.2041-0.05679-0.078776-0.085184-0.17546-0.085184-0.29004v-11.752c0-0.81641-0.070986-1.5612-0.21296-2.2344-0.14197-0.67318-0.36913-1.2533-0.68147-1.7402-0.31234-0.48698-0.70986-0.85937-1.1926-1.1172-0.48271-0.25781-1.0506-0.38672-1.7037-0.38672-0.80925 0-1.622 0.3151-2.4384 0.94531-0.81635 0.63021-1.7143 1.554-2.6939 2.7715v13.514c0 0.11458-0.028394 0.21126-0.085183 0.29004-0.05679 0.078776-0.15262 0.14681-0.2875 0.2041s-0.31589 0.10026-0.54305 0.12891c-0.22716 0.028646-0.5111 0.042969-0.85184 0.042969-0.32654 0-0.60693-0.014323-0.84119-0.042969-0.23426-0.028646-0.41882-0.071614-0.55369-0.12891s-0.22716-0.12533-0.27685-0.2041c-0.049691-0.078776-0.074536-0.17546-0.074536-0.29004v-11.752c0-0.81641-0.078084-1.5612-0.23426-2.2344-0.15617-0.67318-0.39042-1.2533-0.70276-1.7402s-0.70631-0.85937-1.1819-1.1172-1.0399-0.38672-1.693-0.38672c-0.80925 0-1.6256 0.3151-2.449 0.94531s-1.7179 1.554-2.6833 2.7715v13.514c0 0.11458-0.028394 0.21126-0.085184 0.29004-0.056789 0.078776-0.14907 0.14681-0.27685 0.2041s-0.30524 0.10026-0.5324 0.12891c-0.22716 0.028646-0.5182 0.042969-0.87313 0.042969-0.34074 0-0.62468-0.014323-0.85184-0.042969-0.22716-0.028646-0.40817-0.071614-0.54305-0.12891-0.13487-0.057292-0.22716-0.12533-0.27685-0.2041-0.049691-0.078776-0.074536-0.17546-0.074536-0.29004v-19.336c0-0.11458 0.021296-0.21126 0.063888-0.29004s0.12777-0.15039 0.25555-0.21484c0.12778-0.064454 0.29104-0.10742 0.48981-0.12891 0.19876-0.021484 0.46141-0.032227 0.78795-0.032227 0.31234 0 0.57144 0.010742 0.7773 0.032227 0.20586 0.021484 0.36558 0.064453 0.47916 0.12891 0.11358 0.064453 0.19521 0.13607 0.2449 0.21484 0.04969 0.078776 0.074535 0.17546 0.074535 0.29004v2.5566c1.079-1.2175 2.126-2.109 3.1411-2.6748 1.0151-0.56576 2.0409-0.84863 3.0773-0.84863 0.79505 0 1.5085 0.093098 2.1402 0.2793 0.63178 0.1862 1.189 0.44759 1.6717 0.78418 0.48271 0.33659 0.89443 0.73763 1.2352 1.2031 0.34074 0.4655 0.62468 0.9847 0.85184 1.5576 0.63888-0.70183 1.2458-1.2962 1.8208-1.7832s1.1287-0.88086 1.6611-1.1816c0.5324-0.30078 1.0506-0.5192 1.5546-0.65527s1.0116-0.2041 1.5227-0.2041c1.2352 0 2.2716 0.21842 3.1092 0.65527 0.83764 0.43685 1.5156 1.0205 2.0338 1.751s0.88733 1.5863 1.1074 2.5674 0.33009 2.0159 0.33009 3.1045v12.225zm22.735-9.9688c0 1.6901-0.18101 3.2083-0.54305 4.5547-0.36203 1.3464-0.89442 2.4886-1.5972 3.4268s-1.5723 1.6615-2.6088 2.1699c-1.0364 0.50847-2.2219 0.7627-3.5564 0.7627-0.56789 0-1.0932-0.057291-1.5759-0.17188s-0.95476-0.29362-1.4162-0.53711c-0.46141-0.24349-0.91927-0.55143-1.3736-0.92383s-0.93702-0.80924-1.4481-1.3105v9.668c0 0.11458-0.028395 0.21484-0.085184 0.30078s-0.14907 0.15755-0.27685 0.21484c-0.12778 0.057292-0.30524 0.10026-0.5324 0.12891-0.22716 0.028646-0.5182 0.042969-0.87313 0.042969-0.34074 0-0.62468-0.014323-0.85184-0.042969s-0.40817-0.071614-0.54305-0.12891c-0.13488-0.057292-0.22716-0.12891-0.27685-0.21484-0.04969-0.085938-0.074535-0.1862-0.074535-0.30078v-27.006c0-0.12891 0.021295-0.23275 0.063887-0.31152 0.042592-0.078776 0.12778-0.14681 0.25555-0.2041 0.12778-0.057292 0.29104-0.09668 0.48981-0.11816s0.44012-0.032227 0.72406-0.032227c0.29814 0 0.54304 0.010742 0.73471 0.032227 0.19166 0.021484 0.35138 0.060872 0.47916 0.11816 0.12778 0.057292 0.21651 0.12533 0.2662 0.2041 0.04969 0.078776 0.074535 0.18262 0.074535 0.31152v2.5996c0.58209-0.60157 1.1429-1.1243 1.6824-1.5684 0.5395-0.44401 1.0825-0.81282 1.6291-1.1064 0.5466-0.29362 1.1074-0.51562 1.6824-0.66602 0.57499-0.15039 1.1819-0.22559 1.8208-0.22559 1.3913 0 2.5768 0.27213 3.5564 0.81641 0.97962 0.54427 1.7782 1.2891 2.3958 2.2344 0.61758 0.94532 1.0683 2.0446 1.3523 3.2979s0.42592 2.5817 0.42592 3.9854zm-3.7055 0.4082c0-0.98829-0.074535-1.9443-0.22361-2.8682-0.14907-0.92383-0.40462-1.7438-0.76665-2.46-0.36203-0.71615-0.84828-1.2891-1.4588-1.7188s-1.37-0.64453-2.2787-0.64453c-0.45432 0-0.90152 0.068033-1.3416 0.2041-0.44012 0.13607-0.88733 0.35091-1.3416 0.64453-0.45432 0.29362-0.92992 0.68034-1.4268 1.1602-0.49691 0.47982-1.0222 1.0706-1.5759 1.7725v7.6914c0.96542 1.1888 1.8811 2.0983 2.7472 2.7285s1.7747 0.94531 2.7259 0.94531c0.88024 0 1.6362-0.21484 2.268-0.64453 0.63178-0.42969 1.1429-1.0026 1.5333-1.7188s0.67792-1.5182 0.86248-2.4062c0.18457-0.88803 0.27685-1.7832 0.27685-2.6855zm22.117 9.582c0 0.17188-0.056788 0.30078-0.17037 0.38672s-0.26975 0.15039-0.46851 0.19336c-0.19876 0.042969-0.4898 0.064453-0.87313 0.064453-0.36913 0-0.66372-0.021484-0.88378-0.064453-0.22006-0.042969-0.37978-0.10742-0.47916-0.19336-0.099382-0.085938-0.14907-0.21484-0.14907-0.38672v-1.9336c-0.83764 0.90235-1.7711 1.6042-2.8004 2.1055-1.0293 0.5013-2.1189 0.75195-3.2689 0.75195-1.008 0-1.9202-0.13249-2.7365-0.39746-0.81635-0.26498-1.512-0.64811-2.087-1.1494-0.57499-0.5013-1.0222-1.1172-1.3416-1.8477s-0.47916-1.5612-0.47916-2.4922c0-1.0885 0.22006-2.0339 0.66017-2.8359 0.44012-0.80209 1.0719-1.4681 1.8953-1.998 0.82345-0.52995 1.8314-0.92741 3.024-1.1924 1.1926-0.26498 2.5342-0.39746 4.0249-0.39746h2.6407v-1.5039c0-0.7448-0.078084-1.4036-0.23426-1.9766-0.15617-0.57292-0.40817-1.0492-0.756-1.4287s-0.79859-0.66601-1.3523-0.85938c-0.5537-0.19336-1.2352-0.29004-2.0444-0.29004-0.86604 0-1.6433 0.10384-2.3319 0.31152-0.68857 0.20768-1.292 0.43685-1.8102 0.6875s-0.95122 0.47982-1.2991 0.6875-0.60693 0.31152-0.7773 0.31152c-0.11358 0-0.21296-0.028646-0.29814-0.085938-0.085184-0.057292-0.15972-0.14323-0.22361-0.25781s-0.11003-0.26139-0.13842-0.44043c-0.028395-0.17904-0.042592-0.37598-0.042592-0.59082 0-0.35807 0.024845-0.64095 0.074536-0.84863 0.04969-0.20768 0.17037-0.40462 0.36203-0.59082 0.19166-0.1862 0.52175-0.40462 0.99026-0.65527 0.46851-0.25065 1.008-0.47982 1.6185-0.6875 0.61049-0.20768 1.2778-0.37956 2.0018-0.51562s1.4552-0.2041 2.1935-0.2041c1.3771 0 2.5484 0.15755 3.5138 0.47266 0.96542 0.31511 1.7463 0.77702 2.3426 1.3857 0.59629 0.60873 1.0293 1.3643 1.2991 2.2666s0.40462 1.9551 0.40462 3.1582v13.041zm-3.4925-8.8301h-3.0027c-0.96542 0-1.8031 0.082356-2.5129 0.24707-0.70987 0.16471-1.299 0.4082-1.7676 0.73047-0.46851 0.32227-0.81279 0.70898-1.0329 1.1602-0.22006 0.45117-0.33009 0.97037-0.33009 1.5576 0 1.0026 0.31589 1.8011 0.94767 2.3955 0.63178 0.5944 1.5156 0.8916 2.6513 0.8916 0.92283 0 1.7782-0.23633 2.5662-0.70898s1.6149-1.196 2.481-2.1699v-4.1035zm25.141 8.8086c0 0.11458-0.028394 0.21126-0.085183 0.29004-0.05679 0.078776-0.14907 0.14681-0.27685 0.2041s-0.30524 0.10026-0.5324 0.12891c-0.22716 0.028646-0.5111 0.042969-0.85184 0.042969-0.35493 0-0.64598-0.014323-0.87313-0.042969-0.22716-0.028646-0.40462-0.071614-0.5324-0.12891s-0.22006-0.12533-0.27685-0.2041c-0.05679-0.078776-0.085184-0.17546-0.085184-0.29004v-11.322c0-1.1029-0.085183-1.9909-0.25555-2.6641-0.17037-0.67318-0.41882-1.2533-0.74536-1.7402s-0.7489-0.85937-1.2671-1.1172-1.118-0.38672-1.7995-0.38672c-0.88024 0-1.7605 0.3151-2.6407 0.94531-0.88024 0.63021-1.803 1.554-2.7685 2.7715v13.514c0 0.11458-0.028395 0.21126-0.085184 0.29004-0.056789 0.078776-0.14907 0.14681-0.27685 0.2041s-0.30524 0.10026-0.5324 0.12891c-0.22716 0.028646-0.5182 0.042969-0.87313 0.042969-0.34074 0-0.62468-0.014323-0.85184-0.042969-0.22716-0.028646-0.40817-0.071614-0.54305-0.12891s-0.22716-0.12533-0.27685-0.2041c-0.04969-0.078776-0.074535-0.17546-0.074535-0.29004v-19.336c0-0.11458 0.021295-0.21126 0.063887-0.29004s0.12778-0.15039 0.25555-0.21484c0.12778-0.064454 0.29104-0.10742 0.48981-0.12891 0.19876-0.021484 0.46141-0.032227 0.78795-0.032227 0.31234 0 0.57144 0.010742 0.7773 0.032227 0.20586 0.021484 0.36558 0.064453 0.47916 0.12891 0.11358 0.064453 0.19521 0.13607 0.2449 0.21484 0.049691 0.078776 0.074536 0.17546 0.074536 0.29004v2.5566c1.079-1.2175 2.1544-2.109 3.2263-2.6748 1.0719-0.56576 2.1544-0.84863 3.2476-0.84863 1.2778 0 2.3532 0.21842 3.2263 0.65527 0.87314 0.43685 1.5794 1.0205 2.1189 1.751s0.92637 1.5863 1.1606 2.5674c0.23426 0.98112 0.35138 2.1592 0.35138 3.5342v11.795zm13.833 0.53711l-2.5555 7.1113c-0.085184 0.22917-0.30169 0.40462-0.64952 0.52637s-0.87668 0.18262-1.5865 0.18262c-0.36913 0-0.66727-0.017903-0.89443-0.053711-0.22716-0.035808-0.40107-0.096679-0.52175-0.18262-0.12068-0.085938-0.18811-0.20052-0.20231-0.34375-0.014198-0.14323 0.021295-0.3151 0.10648-0.51562l2.6407-6.7246c-0.12778-0.057292-0.24845-0.15039-0.36203-0.2793s-0.19166-0.26497-0.23426-0.4082l-6.836-18.477c-0.11358-0.30078-0.17037-0.53711-0.17037-0.70898 0-0.17188 0.056788-0.30794 0.17037-0.4082 0.11358-0.10026 0.29814-0.16829 0.55369-0.2041s0.59628-0.053711 1.0222-0.053711c0.42592 0 0.75955 0.010742 1.0009 0.032227s0.43302 0.060872 0.57499 0.11816c0.14197 0.057292 0.2449 0.13965 0.30879 0.24707s0.13132 0.25423 0.20231 0.44043l5.473 15.512h0.063888l5.2814-15.598c0.085184-0.27214 0.18811-0.44759 0.30879-0.52637 0.12068-0.078776 0.30169-0.13607 0.54305-0.17188s0.58918-0.053711 1.0435-0.053711c0.39753 0 0.72406 0.017904 0.97961 0.053711 0.25555 0.035808 0.44366 0.10384 0.56434 0.2041 0.12068 0.10026 0.18102 0.23633 0.18102 0.4082 0 0.17188-0.042591 0.38672-0.12778 0.64453l-6.8786 19.229z" fill="#666"/>
<path id="claim" d="m74.683 75.953c0 0.041667-0.010325 0.078125-0.030976 0.10938s-0.056789 0.05599-0.10842 0.074219c-0.051627 0.018229-0.12003 0.033854-0.20522 0.046875-0.085184 0.013021-0.19231 0.019531-0.32137 0.019531-0.1239 0-0.22974-0.0065104-0.3175-0.019531-0.087765-0.013021-0.15746-0.028646-0.20909-0.046875-0.051627-0.018229-0.087765-0.042969-0.10842-0.074219s-0.030976-0.067708-0.030976-0.10938v-9.7031c0-0.041667 0.011616-0.078125 0.034848-0.10938 0.023232-0.03125 0.061951-0.05599 0.11616-0.074219 0.054208-0.018229 0.1239-0.033854 0.20909-0.046875 0.085184-0.013021 0.18715-0.019531 0.30589-0.019531 0.12907 0 0.23619 0.0065104 0.32137 0.019531 0.085184 0.013021 0.15359 0.028646 0.20522 0.046875 0.051627 0.018229 0.087765 0.042969 0.10842 0.074219s0.030976 0.067708 0.030976 0.10938v9.7031zm8.4685-9.3281c0 0.098959-0.0051626 0.1849-0.015488 0.25781-0.010325 0.072917-0.027104 0.13151-0.050336 0.17578-0.023232 0.044271-0.051626 0.076823-0.085184 0.097656s-0.070986 0.03125-0.11229 0.03125h-2.8188v8.7656c0 0.041667-0.010325 0.078125-0.030976 0.10938s-0.056789 0.05599-0.10842 0.074219c-0.051627 0.018229-0.12003 0.033854-0.20522 0.046875-0.085184 0.013021-0.19231 0.019531-0.32137 0.019531-0.1239 0-0.22974-0.0065104-0.3175-0.019531-0.087765-0.013021-0.15746-0.028646-0.20909-0.046875-0.051627-0.018229-0.087765-0.042969-0.10842-0.074219s-0.030976-0.067708-0.030976-0.10938v-8.7656h-2.8188c-0.041301 0-0.07873-0.010417-0.11229-0.03125s-0.060661-0.053385-0.081312-0.097656c-0.020651-0.044271-0.037429-0.10286-0.050336-0.17578-0.012907-0.072917-0.01936-0.15885-0.01936-0.25781s0.0064533-0.1862 0.01936-0.26172c0.012907-0.075521 0.029685-0.13672 0.050336-0.18359s0.047754-0.080729 0.081312-0.10156 0.070986-0.03125 0.11229-0.03125h6.9696c0.041301 0 0.07873 0.010417 0.11229 0.03125s0.061952 0.054687 0.085184 0.10156c0.023232 0.046875 0.04001 0.10807 0.050336 0.18359 0.010325 0.075521 0.015488 0.16276 0.015488 0.26172zm14.978 9.3281c0 0.041667-0.010325 0.078125-0.030976 0.10938s-0.056789 0.05599-0.10842 0.074219c-0.051627 0.018229-0.11745 0.033854-0.19747 0.046875-0.080021 0.013021-0.18456 0.019531-0.31363 0.019531-0.11874 0-0.2207-0.0065104-0.30589-0.019531-0.085184-0.013021-0.1523-0.028646-0.20134-0.046875-0.049045-0.018229-0.083893-0.042969-0.10454-0.074219s-0.030976-0.067708-0.030976-0.10938v-8.8047h-0.015488l-3.57 8.8438c-0.015488 0.036458-0.037429 0.067708-0.065824 0.09375s-0.069695 0.048177-0.1239 0.066406c-0.054208 0.018229-0.11874 0.03125-0.1936 0.039062-0.074859 0.0078126-0.16391 0.011719-0.26717 0.011719-0.10842 0-0.20134-0.0052083-0.27878-0.015625-0.07744-0.010417-0.14197-0.02474-0.1936-0.042969-0.051627-0.018229-0.091637-0.040364-0.12003-0.066406s-0.047754-0.054687-0.05808-0.085938l-3.4151-8.8438h-0.0077439v8.8047c0 0.041667-0.010325 0.078125-0.030976 0.10938s-0.056789 0.05599-0.10842 0.074219c-0.051627 0.018229-0.11874 0.033854-0.20134 0.046875-0.082603 0.013021-0.18844 0.019531-0.3175 0.019531-0.1239 0-0.22716-0.0065104-0.30976-0.019531-0.082603-0.013021-0.14843-0.028646-0.19747-0.046875-0.049045-0.018229-0.082602-0.042969-0.10067-0.074219s-0.027104-0.067708-0.027104-0.10938v-9.2969c0-0.21875 0.056788-0.375 0.17037-0.46875s0.24006-0.14062 0.37945-0.14062h0.80537c0.16521 0 0.30976 0.015625 0.43366 0.046875s0.23232 0.080729 0.32525 0.14844 0.17037 0.15365 0.23232 0.25781 0.11616 0.22656 0.16262 0.36719l2.904 7.3203h0.03872l3.0201-7.2969c0.056789-0.15625 0.11874-0.28906 0.18586-0.39844 0.067115-0.10938 0.14068-0.19661 0.2207-0.26172 0.080021-0.065104 0.16908-0.11198 0.26717-0.14062 0.098091-0.028646 0.21167-0.042969 0.34073-0.042969h0.84409c0.07744 0 0.15101 0.011719 0.2207 0.035156 0.069696 0.023438 0.12907 0.059896 0.17811 0.10938 0.049045 0.04948 0.089056 0.11198 0.12003 0.1875 0.030976 0.075521 0.046464 0.16797 0.046464 0.27734v9.2969zm7.2914 0.015625c0 0.0625-0.020651 0.10937-0.061952 0.14062s-0.09809 0.054687-0.17037 0.070312c-0.072278 0.015625-0.17811 0.023438-0.3175 0.023438-0.13423 0-0.24135-0.0078124-0.32138-0.023438-0.080021-0.015625-0.1381-0.039062-0.17424-0.070312s-0.054208-0.078125-0.054208-0.14062v-0.70312c-0.3046 0.32813-0.64404 0.58333-1.0183 0.76562s-0.77052 0.27344-1.1887 0.27344c-0.36655 0-0.69825-0.048177-0.9951-0.14453-0.29685-0.096355-0.54982-0.23568-0.75891-0.41797-0.20909-0.18229-0.37171-0.40625-0.48787-0.67188-0.11616-0.26563-0.17424-0.56771-0.17424-0.90625 0-0.39584 0.08002-0.73958 0.24006-1.0312 0.16004-0.29167 0.38978-0.53385 0.68921-0.72656s0.66598-0.33724 1.0996-0.43359c0.43366-0.096355 0.92153-0.14453 1.4636-0.14453h0.96025v-0.54688c0-0.27083-0.028395-0.51042-0.085184-0.71875s-0.14842-0.38151-0.27491-0.51953c-0.12648-0.13802-0.2904-0.24219-0.49174-0.3125-0.20134-0.070313-0.44915-0.10547-0.74342-0.10547-0.31492 0-0.59758 0.03776-0.84796 0.11328-0.25039 0.075521-0.4698 0.15885-0.65824 0.25-0.18844 0.091146-0.3459 0.17448-0.47238 0.25-0.12649 0.075521-0.2207 0.11328-0.28266 0.11328-0.041301 0-0.07744-0.010417-0.10842-0.03125s-0.058079-0.052083-0.081311-0.09375-0.040011-0.095052-0.050336-0.16016c-0.010325-0.065104-0.015488-0.13672-0.015488-0.21484 0-0.13021 0.009035-0.23307 0.027104-0.30859 0.018069-0.075521 0.061951-0.14714 0.13165-0.21484s0.18973-0.14714 0.3601-0.23828c0.17037-0.091146 0.36655-0.17448 0.58854-0.25 0.22199-0.075521 0.46464-0.13802 0.72793-0.1875 0.2633-0.04948 0.52917-0.074219 0.79763-0.074219 0.50078 0 0.92669 0.057291 1.2778 0.17188 0.35106 0.11458 0.635 0.28255 0.85184 0.50391 0.21683 0.22136 0.37429 0.49609 0.47238 0.82422s0.14714 0.71094 0.14714 1.1484v4.7422zm-1.27-3.2109h-1.0919c-0.35106 0-0.65566 0.029948-0.91379 0.089844-0.25813 0.059896-0.47238 0.14844-0.64275 0.26562-0.17037 0.11719-0.29556 0.25781-0.37558 0.42188-0.080022 0.16406-0.12003 0.35286-0.12003 0.56641 0 0.36459 0.11487 0.65495 0.34461 0.87109 0.22974 0.21615 0.55111 0.32422 0.96412 0.32422 0.33557 0 0.64662-0.085937 0.93315-0.25781 0.28653-0.17188 0.58725-0.43489 0.90217-0.78906v-1.4922zm9.1422 3.2031c0 0.041667-0.010325 0.076823-0.030976 0.10547-0.02065 0.028646-0.054207 0.053385-0.10067 0.074219s-0.111 0.036458-0.1936 0.046875c-0.082602 0.010417-0.18585 0.015625-0.30976 0.015625-0.12907 0-0.2349-0.0052083-0.3175-0.015625s-0.14714-0.026042-0.1936-0.046875-0.080021-0.045573-0.10067-0.074219c-0.020651-0.028646-0.030976-0.063802-0.030976-0.10547v-4.1172c0-0.40104-0.030975-0.72396-0.092927-0.96875-0.061953-0.24479-0.1523-0.45573-0.27104-0.63281-0.11874-0.17708-0.27233-0.3125-0.46077-0.40625-0.18844-0.09375-0.40656-0.14062-0.65436-0.14062-0.32009 0-0.64017 0.11458-0.96025 0.34375-0.32009 0.22917-0.65565 0.5651-1.0067 1.0078v4.9141c0 0.041667-0.010325 0.076823-0.030976 0.10547-0.020651 0.028646-0.054208 0.053385-0.10067 0.074219s-0.111 0.036458-0.1936 0.046875-0.18844 0.015625-0.3175 0.015625c-0.1239 0-0.22716-0.0052083-0.30976-0.015625-0.082603-0.010417-0.14843-0.026042-0.19747-0.046875-0.049045-0.020833-0.082602-0.045573-0.10067-0.074219-0.01807-0.028646-0.027104-0.063802-0.027104-0.10547v-7.0312c0-0.041667 0.007744-0.076823 0.023232-0.10547 0.015488-0.028646 0.046463-0.054687 0.092927-0.078125 0.046464-0.023438 0.10583-0.039062 0.17811-0.046875 0.072277-0.0078126 0.16778-0.011719 0.28653-0.011719 0.11358 0 0.2078 0.0039062 0.28265 0.011719 0.074859 0.0078125 0.13294 0.023437 0.17424 0.046875 0.041301 0.023438 0.070986 0.049479 0.089055 0.078125 0.01807 0.028646 0.027104 0.063802 0.027104 0.10547v0.92969c0.39236-0.44271 0.78343-0.76693 1.1732-0.97266 0.38978-0.20573 0.78343-0.30859 1.181-0.30859 0.46464 0 0.85571 0.079426 1.1732 0.23828 0.3175 0.15886 0.57434 0.37109 0.77052 0.63672 0.19618 0.26563 0.33686 0.57682 0.42205 0.93359 0.085184 0.35677 0.12778 0.78515 0.12778 1.2852v4.2891zm7.1056 0.0078125c0 0.0625-0.020651 0.10937-0.061952 0.14062-0.041302 0.03125-0.09809 0.054687-0.17037 0.070312-0.072277 0.015625-0.17811 0.023438-0.3175 0.023438-0.13423 0-0.24135-0.0078124-0.32138-0.023438s-0.1381-0.039062-0.17424-0.070312c-0.036139-0.03125-0.054208-0.078125-0.054208-0.14062v-0.70312c-0.3046 0.32813-0.64404 0.58333-1.0183 0.76562s-0.77052 0.27344-1.1887 0.27344c-0.36655 0-0.69825-0.048177-0.9951-0.14453-0.29685-0.096355-0.54982-0.23568-0.75891-0.41797-0.20909-0.18229-0.37171-0.40625-0.48787-0.67188-0.11616-0.26563-0.17424-0.56771-0.17424-0.90625 0-0.39584 0.08002-0.73958 0.24006-1.0312s0.38978-0.53385 0.68921-0.72656 0.66598-0.33724 1.0996-0.43359c0.43366-0.096355 0.92153-0.14453 1.4636-0.14453h0.96025v-0.54688c0-0.27083-0.028395-0.51042-0.085184-0.71875s-0.14843-0.38151-0.27491-0.51953c-0.12648-0.13802-0.2904-0.24219-0.49174-0.3125-0.20134-0.070313-0.44915-0.10547-0.74342-0.10547-0.31492 0-0.59758 0.03776-0.84796 0.11328-0.25039 0.075521-0.4698 0.15885-0.65824 0.25-0.18844 0.091146-0.3459 0.17448-0.47238 0.25-0.12649 0.075521-0.2207 0.11328-0.28266 0.11328-0.041301 0-0.07744-0.010417-0.10842-0.03125s-0.058079-0.052083-0.081311-0.09375-0.040011-0.095052-0.050336-0.16016c-0.010325-0.065104-0.015488-0.13672-0.015488-0.21484 0-0.13021 0.009034-0.23307 0.027104-0.30859 0.018069-0.075521 0.061951-0.14714 0.13165-0.21484s0.18973-0.14714 0.3601-0.23828c0.17037-0.091146 0.36655-0.17448 0.58854-0.25 0.22199-0.075521 0.46464-0.13802 0.72793-0.1875 0.2633-0.04948 0.52917-0.074219 0.79763-0.074219 0.50078 0 0.92669 0.057291 1.2778 0.17188 0.35106 0.11458 0.635 0.28255 0.85184 0.50391 0.21683 0.22136 0.37429 0.49609 0.47238 0.82422s0.14714 0.71094 0.14714 1.1484v4.7422zm-1.27-3.2109h-1.0919c-0.35106 0-0.65566 0.029948-0.91379 0.089844-0.25813 0.059896-0.47238 0.14844-0.64275 0.26562-0.17037 0.11719-0.29556 0.25781-0.37558 0.42188-0.080022 0.16406-0.12003 0.35286-0.12003 0.56641 0 0.36459 0.11487 0.65495 0.34461 0.87109 0.22974 0.21615 0.55111 0.32422 0.96412 0.32422 0.33557 0 0.64662-0.085937 0.93315-0.25781s0.58725-0.43489 0.90217-0.78906v-1.4922zm8.9641-3.5078c0 0.18229-0.024523 0.3138-0.073568 0.39453-0.049045 0.08073-0.11229 0.12109-0.18973 0.12109h-0.99897c0.18069 0.1875 0.30718 0.39453 0.37945 0.62109 0.072278 0.22656 0.10842 0.46224 0.10842 0.70703 0 0.40625-0.064533 0.76562-0.1936 1.0781-0.12907 0.3125-0.31363 0.57682-0.55369 0.79297-0.24006 0.21615-0.5253 0.38151-0.85571 0.49609s-0.69696 0.17188-1.0996 0.17188c-0.28395 0-0.55369-0.03776-0.80924-0.11328-0.25555-0.075521-0.45302-0.17057-0.59241-0.28516-0.092928 0.09375-0.16908 0.20052-0.22845 0.32031s-0.089056 0.25781-0.089056 0.41406c0 0.18229 0.083892 0.33333 0.25168 0.45312s0.39107 0.1849 0.66985 0.19531l1.8198 0.078125c0.3459 0.010417 0.6634 0.058593 0.95251 0.14453 0.28911 0.085938 0.5395 0.20833 0.75116 0.36719 0.21167 0.15886 0.37687 0.35417 0.49561 0.58594 0.11874 0.23177 0.17811 0.5013 0.17811 0.80859 0 0.32292-0.067114 0.63021-0.20134 0.92188-0.13423 0.29167-0.33944 0.54818-0.61565 0.76953-0.2762 0.22136-0.62855 0.39583-1.0571 0.52344-0.4285 0.1276-0.93444 0.19141-1.5178 0.19141-0.56273 0-1.0416-0.048177-1.4365-0.14453-0.39494-0.096355-0.7189-0.22786-0.97187-0.39453s-0.43624-0.36588-0.54982-0.59766c-0.11358-0.23177-0.17037-0.48307-0.17037-0.75391 0-0.17188 0.02065-0.33854 0.061952-0.5 0.041301-0.16146 0.10454-0.3151 0.18973-0.46094s0.19102-0.28516 0.3175-0.41797c0.12648-0.13281 0.27233-0.26432 0.43753-0.39453-0.25297-0.13021-0.44012-0.29427-0.56144-0.49219s-0.18198-0.41146-0.18198-0.64062c0-0.31771 0.064532-0.60156 0.1936-0.85156s0.28911-0.47396 0.48013-0.67188c-0.16004-0.19271-0.28653-0.41016-0.37945-0.65234-0.092928-0.24219-0.13939-0.53515-0.13939-0.87891 0-0.40104 0.067114-0.76042 0.20134-1.0781 0.13423-0.31771 0.32008-0.58594 0.55757-0.80469s0.52272-0.38672 0.85571-0.50391c0.33299-0.11719 0.69566-0.17578 1.088-0.17578 0.21167 0 0.40914 0.011719 0.59241 0.035156 0.18328 0.023438 0.35493 0.055989 0.51497 0.097656h2.1064c0.087765 0 0.15359 0.042968 0.19747 0.12891 0.043883 0.085938 0.065824 0.21745 0.065824 0.39453zm-1.9979 1.8516c0-0.47917-0.13036-0.85286-0.39107-1.1211-0.26072-0.26823-0.63113-0.40234-1.1113-0.40234-0.24781 0-0.46335 0.041666-0.64662 0.125s-0.33557 0.19792-0.45689 0.34375-0.21167 0.3138-0.27104 0.50391c-0.059371 0.19011-0.089056 0.38932-0.089056 0.59766 0 0.46354 0.13036 0.82812 0.39107 1.0938s0.62597 0.39844 1.0958 0.39844c0.25297 0 0.47238-0.040364 0.65824-0.12109 0.18586-0.08073 0.33944-0.19271 0.46077-0.33594 0.12132-0.14323 0.21167-0.30859 0.27104-0.49609s0.089056-0.38281 0.089056-0.58594zm0.64275 5.5703c0-0.30208-0.12261-0.53516-0.36784-0.69922-0.24523-0.16406-0.57692-0.2513-0.9951-0.26172l-1.8043-0.0625c-0.16521 0.13021-0.30072 0.25391-0.40656 0.37109-0.10584 0.11719-0.18973 0.22917-0.25168 0.33594-0.061952 0.10677-0.10454 0.21224-0.12778 0.31641s-0.034848 0.21094-0.034848 0.32031c0 0.33854 0.17037 0.59505 0.5111 0.76953 0.34074 0.17448 0.8157 0.26172 1.4249 0.26172 0.3872 0 0.71115-0.03776 0.97187-0.11328 0.26072-0.075521 0.47109-0.17578 0.63113-0.30078s0.27491-0.26823 0.34461-0.42969c0.069696-0.16146 0.10454-0.33073 0.10454-0.50781zm8.3368-4.5312c0 0.20313-0.050336 0.34766-0.15101 0.43359-0.10067 0.085938-0.21554 0.12891-0.34461 0.12891h-4.5689c0 0.39063 0.038719 0.74219 0.11616 1.0547s0.2065 0.58073 0.3872 0.80469c0.18069 0.22396 0.41559 0.39583 0.7047 0.51562s0.64275 0.17969 1.0609 0.17969c0.33041 0 0.62468-0.027344 0.88281-0.082031 0.25813-0.054688 0.48142-0.11588 0.66985-0.18359 0.18844-0.067709 0.34332-0.12891 0.46464-0.18359 0.12132-0.054688 0.21296-0.082031 0.27491-0.082031 0.036138 0 0.068405 0.0091145 0.096799 0.027344 0.028395 0.018229 0.050336 0.045573 0.065824 0.082031s0.027104 0.087239 0.034848 0.15234c0.007744 0.065104 0.011616 0.14453 0.011616 0.23828 0 0.067709-0.002581 0.1263-0.007744 0.17578-0.005163 0.049479-0.011616 0.09375-0.01936 0.13281-0.007744 0.039063-0.020651 0.074219-0.03872 0.10547s-0.041301 0.061198-0.069696 0.089844c-0.028394 0.028646-0.11229 0.07552-0.25168 0.14062-0.13939 0.065104-0.32008 0.12891-0.54208 0.19141-0.222 0.0625-0.47883 0.11849-0.77052 0.16797-0.29169 0.049479-0.60274 0.074219-0.93315 0.074219-0.57306 0-1.0751-0.080728-1.5062-0.24219s-0.79376-0.40104-1.088-0.71875c-0.29427-0.31771-0.51626-0.71614-0.66598-1.1953-0.14972-0.47917-0.22458-1.0365-0.22458-1.6719 0-0.60417 0.077439-1.1471 0.23232-1.6289 0.15488-0.48177 0.37816-0.89062 0.66985-1.2266 0.29169-0.33594 0.64404-0.59375 1.0571-0.77344 0.41301-0.17969 0.87507-0.26953 1.3862-0.26953 0.54724 0 1.0132 0.088541 1.3978 0.26562s0.70083 0.41536 0.94864 0.71484c0.24781 0.29948 0.42979 0.65104 0.54595 1.0547 0.11616 0.40365 0.17424 0.83463 0.17424 1.293v0.23438zm-1.2855-0.38281c0.015488-0.67709-0.13294-1.2083-0.44528-1.5938-0.31234-0.38542-0.77568-0.57812-1.39-0.57812-0.31492 0-0.59112 0.059895-0.8286 0.17969s-0.43624 0.27864-0.59628 0.47656-0.28394 0.42838-0.37171 0.69141c-0.087765 0.26302-0.13681 0.53776-0.14714 0.82422h3.7791zm13.092 4.2031c0 0.041667-0.010326 0.076823-0.030976 0.10547-0.020651 0.028646-0.054208 0.053385-0.10067 0.074219s-0.111 0.036458-0.1936 0.046875-0.18586 0.015625-0.30976 0.015625c-0.12907 0-0.2349-0.0052083-0.3175-0.015625-0.082602-0.010417-0.14843-0.026042-0.19747-0.046875s-0.083893-0.045573-0.10454-0.074219c-0.020651-0.028646-0.030976-0.063802-0.030976-0.10547v-4.2734c0-0.29688-0.025813-0.56771-0.07744-0.8125s-0.13423-0.45573-0.24781-0.63281-0.25813-0.3125-0.43366-0.40625c-0.17553-0.09375-0.38204-0.14062-0.61952-0.14062-0.29427 0-0.58983 0.11458-0.88668 0.34375-0.29685 0.22917-0.62339 0.5651-0.97961 1.0078v4.9141c0 0.041667-0.010325 0.076823-0.030975 0.10547-0.020651 0.028646-0.055499 0.053385-0.10454 0.074219s-0.11487 0.036458-0.19747 0.046875-0.18586 0.015625-0.30976 0.015625c-0.11874 0-0.2207-0.0052083-0.30589-0.015625s-0.1523-0.026042-0.20134-0.046875-0.082602-0.045573-0.10067-0.074219c-0.018069-0.028646-0.027103-0.063802-0.027103-0.10547v-4.2734c0-0.29688-0.028395-0.56771-0.085184-0.8125s-0.14197-0.45573-0.25555-0.63281-0.25684-0.3125-0.42979-0.40625c-0.17295-0.09375-0.37816-0.14062-0.61565-0.14062-0.29427 0-0.59112 0.11458-0.89056 0.34375s-0.62468 0.5651-0.97574 1.0078v4.9141c0 0.041667-0.010325 0.076823-0.030975 0.10547-0.020651 0.028646-0.054208 0.053385-0.10067 0.074219s-0.111 0.036458-0.1936 0.046875c-0.082603 0.010417-0.18844 0.015625-0.3175 0.015625-0.1239 0-0.22716-0.0052083-0.30976-0.015625s-0.14843-0.026042-0.19747-0.046875-0.082602-0.045573-0.10067-0.074219c-0.018069-0.028646-0.027103-0.063802-0.027103-0.10547v-7.0312c0-0.041667 0.007743-0.076823 0.023231-0.10547 0.015488-0.028646 0.046464-0.054687 0.092928-0.078125 0.046464-0.023438 0.10583-0.039062 0.17811-0.046875 0.072278-0.0078126 0.16779-0.011719 0.28653-0.011719 0.11358 0 0.2078 0.0039062 0.28266 0.011719 0.074859 0.0078125 0.13294 0.023437 0.17424 0.046875 0.041302 0.023438 0.070987 0.049479 0.089056 0.078125 0.018069 0.028646 0.027104 0.063802 0.027104 0.10547v0.92969c0.39236-0.44271 0.7731-0.76693 1.1422-0.97266 0.36913-0.20573 0.74213-0.30859 1.119-0.30859 0.28911 0 0.54853 0.033854 0.77827 0.10156s0.43237 0.16276 0.6079 0.28516c0.17553 0.1224 0.32525 0.26823 0.44915 0.4375 0.1239 0.16927 0.22716 0.35807 0.30976 0.56641 0.23232-0.25521 0.45302-0.47135 0.66211-0.64844s0.41043-0.32031 0.60403-0.42969c0.1936-0.10938 0.38204-0.1888 0.56531-0.23828 0.18328-0.04948 0.36784-0.074219 0.55369-0.074219 0.44915 0 0.82602 0.079426 1.1306 0.23828 0.3046 0.15886 0.55111 0.37109 0.73955 0.63672 0.18844 0.26563 0.32266 0.57682 0.40269 0.93359 0.080021 0.35677 0.12003 0.73307 0.12003 1.1289v4.4453zm7.8025-3.8203c0 0.20313-0.050335 0.34766-0.15101 0.43359-0.10067 0.085938-0.21554 0.12891-0.34461 0.12891h-4.5689c0 0.39063 0.03872 0.74219 0.11616 1.0547s0.2065 0.58073 0.3872 0.80469c0.18069 0.22396 0.41559 0.39583 0.7047 0.51562 0.28911 0.11979 0.64275 0.17969 1.0609 0.17969 0.33041 0 0.62468-0.027344 0.88281-0.082031 0.25813-0.054688 0.48142-0.11588 0.66985-0.18359 0.18844-0.067709 0.34332-0.12891 0.46464-0.18359 0.12132-0.054688 0.21296-0.082031 0.27491-0.082031 0.036139 0 0.068405 0.0091145 0.0968 0.027344 0.028395 0.018229 0.050336 0.045573 0.065824 0.082031s0.027103 0.087239 0.034847 0.15234c0.007744 0.065104 0.011616 0.14453 0.011616 0.23828 0 0.067709-0.002581 0.1263-0.007744 0.17578-0.005162 0.049479-0.011615 0.09375-0.019359 0.13281-0.007744 0.039063-0.020651 0.074219-0.03872 0.10547-0.01807 0.03125-0.041301 0.061198-0.069696 0.089844-0.028395 0.028646-0.11229 0.07552-0.25168 0.14062-0.13939 0.065104-0.32008 0.12891-0.54208 0.19141s-0.47883 0.11849-0.77052 0.16797c-0.29169 0.049479-0.60274 0.074219-0.93315 0.074219-0.57306 0-1.0751-0.080728-1.5062-0.24219s-0.79376-0.40104-1.088-0.71875-0.51626-0.71614-0.66598-1.1953c-0.14972-0.47917-0.22458-1.0365-0.22458-1.6719 0-0.60417 0.077439-1.1471 0.23232-1.6289 0.15488-0.48177 0.37816-0.89062 0.66985-1.2266 0.29169-0.33594 0.64404-0.59375 1.0571-0.77344 0.41301-0.17969 0.87507-0.26953 1.3862-0.26953 0.54724 0 1.0132 0.088541 1.3978 0.26562s0.70083 0.41536 0.94864 0.71484c0.24781 0.29948 0.42979 0.65104 0.54595 1.0547 0.11616 0.40365 0.17424 0.83463 0.17424 1.293v0.23438zm-1.2855-0.38281c0.015488-0.67709-0.13294-1.2083-0.44528-1.5938s-0.77568-0.57812-1.39-0.57812c-0.31492 0-0.59112 0.059895-0.8286 0.17969s-0.43624 0.27864-0.59629 0.47656-0.28394 0.42838-0.37171 0.69141c-0.087766 0.26302-0.13681 0.53776-0.14714 0.82422h3.7791zm8.755 4.2031c0 0.041667-0.010325 0.076823-0.030976 0.10547-0.02065 0.028646-0.054207 0.053385-0.10067 0.074219s-0.111 0.036458-0.1936 0.046875c-0.082603 0.010417-0.18586 0.015625-0.30976 0.015625-0.12907 0-0.2349-0.0052083-0.3175-0.015625s-0.14714-0.026042-0.1936-0.046875-0.080021-0.045573-0.10067-0.074219c-0.02065-0.028646-0.030976-0.063802-0.030976-0.10547v-4.1172c0-0.40104-0.030975-0.72396-0.092927-0.96875s-0.1523-0.45573-0.27104-0.63281c-0.11874-0.17708-0.27233-0.3125-0.46077-0.40625-0.18844-0.09375-0.40656-0.14062-0.65437-0.14062-0.32008 0-0.64017 0.11458-0.96025 0.34375s-0.65565 0.5651-1.0067 1.0078v4.9141c0 0.041667-0.010325 0.076823-0.030976 0.10547-0.020651 0.028646-0.054207 0.053385-0.10067 0.074219-0.046465 0.020833-0.111 0.036458-0.1936 0.046875-0.082602 0.010417-0.18844 0.015625-0.3175 0.015625-0.1239 0-0.22716-0.0052083-0.30976-0.015625s-0.14843-0.026042-0.19747-0.046875c-0.049046-0.020833-0.082603-0.045573-0.10067-0.074219-0.018069-0.028646-0.027104-0.063802-0.027104-0.10547v-7.0312c0-0.041667 0.007744-0.076823 0.023232-0.10547 0.015488-0.028646 0.046464-0.054687 0.092928-0.078125 0.046464-0.023438 0.10583-0.039062 0.17811-0.046875 0.072277-0.0078126 0.16778-0.011719 0.28653-0.011719 0.11358 0 0.2078 0.0039062 0.28266 0.011719 0.074858 0.0078125 0.13294 0.023437 0.17424 0.046875 0.041301 0.023438 0.070986 0.049479 0.089056 0.078125 0.018069 0.028646 0.027104 0.063802 0.027104 0.10547v0.92969c0.39236-0.44271 0.78343-0.76693 1.1732-0.97266 0.38978-0.20573 0.78343-0.30859 1.181-0.30859 0.46464 0 0.85571 0.079426 1.1732 0.23828 0.3175 0.15886 0.57434 0.37109 0.77052 0.63672 0.19618 0.26563 0.33686 0.57682 0.42205 0.93359 0.085184 0.35677 0.12778 0.78515 0.12778 1.2852v4.2891zm5.3322-0.51562c0 0.15104-0.010325 0.27083-0.030976 0.35938s-0.051626 0.15365-0.092928 0.19531c-0.041301 0.041667-0.10325 0.080729-0.18586 0.11719s-0.17682 0.066406-0.28266 0.089844c-0.10584 0.023438-0.21812 0.042969-0.33686 0.058594-0.11874 0.015625-0.23748 0.023438-0.35622 0.023438-0.36139 0-0.67114-0.048177-0.92928-0.14453-0.25813-0.096355-0.4698-0.24219-0.63501-0.4375-0.1652-0.19531-0.28524-0.44271-0.36009-0.74219-0.074859-0.29948-0.11229-0.65234-0.11229-1.0586v-4.1094h-0.97574c-0.07744 0-0.13939-0.041666-0.18586-0.125s-0.069696-0.21875-0.069696-0.40625c0-0.098959 0.006453-0.18229 0.01936-0.25 0.012906-0.067709 0.029685-0.1237 0.050336-0.16797 0.02065-0.044271 0.047754-0.075521 0.081311-0.09375 0.033558-0.018229 0.070986-0.027344 0.11229-0.027344h0.968v-1.6719c0-0.036458 0.009035-0.070312 0.027104-0.10156s0.051626-0.058594 0.10067-0.082031c0.049046-0.023438 0.11487-0.040365 0.19747-0.050781 0.082602-0.010417 0.18585-0.015625 0.30976-0.015625 0.12907 0 0.2349 0.0052083 0.3175 0.015625s0.14714 0.027344 0.1936 0.050781c0.046464 0.023438 0.080021 0.050781 0.10067 0.082031s0.030976 0.065104 0.030976 0.10156v1.6719h1.7889c0.041301 0 0.077439 0.0091145 0.10842 0.027344 0.030976 0.018229 0.05808 0.049479 0.081312 0.09375 0.023232 0.044271 0.040011 0.10026 0.050336 0.16797s0.015488 0.15104 0.015488 0.25c0 0.1875-0.023232 0.32292-0.069696 0.40625s-0.10842 0.125-0.18586 0.125h-1.7889v3.9219c0 0.48438 0.070986 0.85026 0.21296 1.0977 0.14197 0.2474 0.39623 0.37109 0.76278 0.37109 0.11874 0 0.22458-0.011719 0.3175-0.035156 0.092928-0.023438 0.17553-0.048177 0.24781-0.074219 0.072277-0.026042 0.13423-0.050781 0.18586-0.074219 0.051627-0.023438 0.09809-0.035156 0.13939-0.035156 0.025813 0 0.050335 0.0065104 0.073567 0.019531 0.023232 0.013021 0.041301 0.03776 0.054208 0.074219s0.024523 0.085937 0.034848 0.14844 0.015488 0.14062 0.015488 0.23438zm10.045 0.15625c0 0.09375-0.005162 0.17578-0.015488 0.24609-0.010325 0.070313-0.028394 0.12891-0.054207 0.17578-0.025814 0.046875-0.055499 0.080729-0.089056 0.10156s-0.070986 0.03125-0.11229 0.03125h-4.809c-0.11874 0-0.23103-0.040364-0.33686-0.12109-0.10584-0.08073-0.15875-0.22266-0.15875-0.42578v-9.0156c0-0.20313 0.052917-0.34505 0.15875-0.42578 0.10584-0.08073 0.21812-0.12109 0.33686-0.12109h4.7548c0.041301 0 0.07873 0.010417 0.11229 0.03125s0.060661 0.054687 0.081312 0.10156c0.02065 0.046875 0.037429 0.10547 0.050336 0.17578 0.012906 0.070313 0.01936 0.15755 0.01936 0.26172 0 0.09375-0.006454 0.17578-0.01936 0.24609-0.012907 0.070313-0.029686 0.1276-0.050336 0.17188-0.020651 0.044271-0.047755 0.076823-0.081312 0.097656s-0.070986 0.03125-0.11229 0.03125h-3.9184v3.1719h3.3609c0.041301 0 0.07873 0.011719 0.11229 0.035156 0.033558 0.023438 0.061952 0.055989 0.085184 0.097656s0.04001 0.098958 0.050336 0.17188c0.010325 0.072917 0.015488 0.15885 0.015488 0.25781 0 0.09375-0.005163 0.17448-0.015488 0.24219-0.010326 0.067709-0.027104 0.1224-0.050336 0.16406s-0.051626 0.071614-0.085184 0.089844c-0.033557 0.018229-0.070986 0.027344-0.11229 0.027344h-3.3609v3.6172h3.9727c0.041302 0 0.078731 0.010417 0.11229 0.03125s0.063242 0.053385 0.089056 0.097656c0.025813 0.044271 0.043882 0.10156 0.054207 0.17188 0.010326 0.070313 0.015488 0.15755 0.015488 0.26172zm6.8268 0.21094c0.041301 0.072917 0.061952 0.13411 0.061952 0.18359 0 0.049479-0.024523 0.089844-0.073568 0.12109s-0.1239 0.053385-0.22458 0.066406c-0.10067 0.013021-0.23103 0.019531-0.39107 0.019531-0.15488 0-0.27749-0.0039062-0.36784-0.011719-0.090347-0.0078125-0.16262-0.020833-0.21683-0.039062-0.054208-0.018229-0.095509-0.041667-0.1239-0.070313-0.028395-0.028646-0.052917-0.061198-0.073568-0.097656l-1.6727-2.7891-1.665 2.7891c-0.020651 0.036458-0.045173 0.06901-0.073568 0.097656-0.028395 0.028646-0.069695 0.052083-0.1239 0.070313-0.054208 0.018229-0.12519 0.03125-0.21296 0.039062-0.087765 0.0078126-0.20392 0.011719-0.34848 0.011719-0.14972 0-0.27233-0.0065104-0.36784-0.019531-0.095509-0.013021-0.1652-0.035156-0.20909-0.066406s-0.064533-0.071614-0.061952-0.12109c0.002582-0.04948 0.027104-0.11068 0.073568-0.18359l2.1683-3.4297-2.0522-3.3047c-0.041301-0.072917-0.063242-0.13411-0.065823-0.18359-0.002582-0.049479 0.02065-0.091146 0.069695-0.125 0.049046-0.033854 0.1239-0.05599 0.22458-0.066406 0.10067-0.010417 0.23361-0.015625 0.39881-0.015625 0.14972 0 0.26975 0.0039062 0.3601 0.011719 0.090346 0.0078125 0.16133 0.019531 0.21296 0.035156 0.051626 0.015625 0.090346 0.036458 0.11616 0.0625 0.025814 0.026042 0.049045 0.057292 0.069696 0.09375l1.5875 2.6172 1.6107-2.6172c0.020651-0.03125 0.043883-0.059896 0.069696-0.085938s0.060661-0.048177 0.10454-0.066406c0.043882-0.018229 0.10583-0.03125 0.18586-0.039062 0.080021-0.0078126 0.18973-0.011719 0.32912-0.011719 0.14972 0 0.27233 0.0052083 0.36784 0.015625 0.09551 0.010417 0.1665 0.029948 0.21296 0.058594 0.046464 0.028646 0.067115 0.06901 0.061952 0.12109s-0.030976 0.11719-0.07744 0.19531l-2.0367 3.2656 2.1528 3.4688zm7.5237-3.4766c0 0.61459-0.065823 1.1667-0.19747 1.6562-0.13165 0.48959-0.32524 0.90495-0.5808 1.2461-0.25555 0.34115-0.57176 0.60417-0.94864 0.78906-0.37688 0.1849-0.80795 0.27734-1.2932 0.27734-0.20651 0-0.39752-0.020833-0.57305-0.0625s-0.34719-0.10677-0.51497-0.19531-0.33428-0.20052-0.49949-0.33594c-0.16521-0.13542-0.34073-0.29427-0.52659-0.47656v3.5156c0 0.041667-0.010325 0.078125-0.030976 0.10938s-0.054207 0.057292-0.10067 0.078125-0.111 0.036458-0.1936 0.046875c-0.082602 0.010417-0.18844 0.015625-0.3175 0.015625-0.1239 0-0.22716-0.0052083-0.30976-0.015625s-0.14843-0.026042-0.19747-0.046875c-0.049046-0.020833-0.082603-0.046875-0.10067-0.078125s-0.027104-0.067708-0.027104-0.10938v-9.8203c0-0.046875 0.007744-0.084635 0.023232-0.11328 0.015488-0.028646 0.046464-0.053385 0.092928-0.074219s0.10583-0.035156 0.17811-0.042969c0.072277-0.0078126 0.16004-0.011719 0.2633-0.011719 0.10842 0 0.19747 0.0039062 0.26717 0.011719 0.069696 0.0078125 0.12778 0.022135 0.17424 0.042969s0.07873 0.045573 0.0968 0.074219c0.018069 0.028646 0.027104 0.066406 0.027104 0.11328v0.94531c0.21167-0.21875 0.41559-0.40885 0.61177-0.57031 0.19618-0.16146 0.39365-0.29557 0.59241-0.40234 0.19876-0.10677 0.40268-0.1875 0.61177-0.24219 0.20909-0.054688 0.42979-0.082031 0.66211-0.082031 0.50594 0 0.93702 0.098957 1.2932 0.29688 0.35622 0.19792 0.64662 0.46875 0.8712 0.8125s0.38849 0.74349 0.49174 1.1992c0.10325 0.45573 0.15488 0.9388 0.15488 1.4492zm-1.3475 0.14844c0-0.35938-0.027104-0.70703-0.081312-1.043-0.054208-0.33594-0.14713-0.63411-0.27878-0.89453-0.13165-0.26042-0.30847-0.46875-0.53046-0.625-0.222-0.15625-0.49819-0.23438-0.8286-0.23438-0.16521 0-0.32783 0.024739-0.48787 0.074219-0.16004 0.049479-0.32266 0.1276-0.48787 0.23438-0.16521 0.10677-0.33815 0.24739-0.51885 0.42188-0.18069 0.17448-0.37171 0.38932-0.57305 0.64453v2.7969c0.35106 0.43229 0.68405 0.76302 0.99897 0.99219s0.64533 0.34375 0.99123 0.34375c0.32009 0 0.59499-0.078124 0.82473-0.23438s0.41559-0.36458 0.55757-0.625c0.14197-0.26042 0.24652-0.55208 0.31363-0.875 0.067115-0.32292 0.10067-0.64844 0.10067-0.97656zm8.7395-0.34375c0 0.20313-0.050335 0.34766-0.15101 0.43359-0.10067 0.085938-0.21554 0.12891-0.34461 0.12891h-4.5689c0 0.39063 0.03872 0.74219 0.11616 1.0547s0.2065 0.58073 0.3872 0.80469c0.18069 0.22396 0.41559 0.39583 0.7047 0.51562 0.28911 0.11979 0.64275 0.17969 1.0609 0.17969 0.33041 0 0.62468-0.027344 0.88281-0.082031 0.25813-0.054688 0.48142-0.11588 0.66985-0.18359 0.18844-0.067709 0.34332-0.12891 0.46464-0.18359 0.12132-0.054688 0.21296-0.082031 0.27491-0.082031 0.036139 0 0.068405 0.0091145 0.0968 0.027344 0.028394 0.018229 0.050335 0.045573 0.065823 0.082031s0.027104 0.087239 0.034848 0.15234c0.007744 0.065104 0.011616 0.14453 0.011616 0.23828 0 0.067709-0.002581 0.1263-0.007744 0.17578-0.005162 0.049479-0.011616 0.09375-0.01936 0.13281-0.007744 0.039063-0.02065 0.074219-0.03872 0.10547-0.018069 0.03125-0.041301 0.061198-0.069695 0.089844-0.028395 0.028646-0.11229 0.07552-0.25168 0.14062-0.13939 0.065104-0.32008 0.12891-0.54208 0.19141s-0.47883 0.11849-0.77052 0.16797c-0.29169 0.049479-0.60274 0.074219-0.93315 0.074219-0.57306 0-1.0751-0.080728-1.5062-0.24219-0.43108-0.16146-0.79376-0.40104-1.088-0.71875s-0.51626-0.71614-0.66598-1.1953c-0.14972-0.47917-0.22458-1.0365-0.22458-1.6719 0-0.60417 0.077439-1.1471 0.23232-1.6289 0.15488-0.48177 0.37816-0.89062 0.66985-1.2266 0.29169-0.33594 0.64404-0.59375 1.0571-0.77344 0.41301-0.17969 0.87507-0.26953 1.3862-0.26953 0.54724 0 1.0132 0.088541 1.3978 0.26562s0.70083 0.41536 0.94864 0.71484c0.24781 0.29948 0.42979 0.65104 0.54595 1.0547 0.11616 0.40365 0.17424 0.83463 0.17424 1.293v0.23438zm-1.2855-0.38281c0.015488-0.67709-0.13294-1.2083-0.44528-1.5938s-0.77568-0.57812-1.39-0.57812c-0.31492 0-0.59112 0.059895-0.8286 0.17969s-0.43624 0.27864-0.59629 0.47656-0.28394 0.42838-0.37171 0.69141c-0.087766 0.26302-0.13681 0.53776-0.14714 0.82422h3.7791zm6.8268-2.3672c0 0.11458-0.002582 0.21094-0.007744 0.28906-0.005163 0.078125-0.015488 0.13932-0.030976 0.18359-0.015488 0.044271-0.034848 0.078125-0.05808 0.10156-0.023232 0.023438-0.055498 0.035156-0.0968 0.035156-0.041301 0-0.091636-0.011719-0.15101-0.035156-0.059371-0.023438-0.12648-0.046875-0.20134-0.070313-0.074859-0.023438-0.15875-0.045573-0.25168-0.066406s-0.1936-0.03125-0.30202-0.03125c-0.12907 0-0.25555 0.026041-0.37945 0.078125-0.1239 0.052084-0.25426 0.13802-0.39107 0.25781s-0.28007 0.27864-0.42979 0.47656c-0.14972 0.19792-0.31492 0.4401-0.49561 0.72656v4.625c0 0.041667-0.010325 0.076823-0.030976 0.10547-0.020651 0.028646-0.054208 0.053385-0.10067 0.074219s-0.111 0.036458-0.1936 0.046875-0.18844 0.015625-0.3175 0.015625c-0.1239 0-0.22716-0.0052083-0.30976-0.015625-0.082603-0.010417-0.14843-0.026042-0.19747-0.046875-0.049045-0.020833-0.082602-0.045573-0.10067-0.074219-0.01807-0.028646-0.027104-0.063802-0.027104-0.10547v-7.0312c0-0.041667 0.007744-0.076823 0.023232-0.10547 0.015488-0.028646 0.046463-0.054687 0.092927-0.078125 0.046464-0.023438 0.10583-0.039062 0.17811-0.046875 0.072277-0.0078126 0.16778-0.011719 0.28653-0.011719 0.11358 0 0.2078 0.0039062 0.28265 0.011719 0.074859 0.0078125 0.13294 0.023437 0.17424 0.046875 0.041301 0.023438 0.070986 0.049479 0.089055 0.078125 0.01807 0.028646 0.027104 0.063802 0.027104 0.10547v1.0234c0.19102-0.28125 0.37042-0.51042 0.53821-0.6875s0.32654-0.31641 0.47625-0.41797c0.14972-0.10156 0.29814-0.17187 0.44528-0.21094 0.14714-0.039063 0.29556-0.058594 0.44528-0.058594 0.067114 0 0.14326 0.0039062 0.22845 0.011719 0.085184 0.0078125 0.17424 0.022135 0.26717 0.042969s0.17682 0.044271 0.25168 0.070312 0.12778 0.052083 0.15875 0.078125 0.051627 0.050781 0.061952 0.074219c0.010325 0.023438 0.01936 0.053385 0.027104 0.089844s0.012906 0.089843 0.015488 0.16016c0.002581 0.070313 0.003872 0.16536 0.003872 0.28516zm4.6043 6.0547c0 0.15104-0.010325 0.27083-0.030976 0.35938-0.02065 0.088542-0.051626 0.15365-0.092927 0.19531-0.041302 0.041667-0.10325 0.080729-0.18586 0.11719-0.082602 0.036458-0.17682 0.066406-0.28266 0.089844-0.10583 0.023438-0.21812 0.042969-0.33686 0.058594-0.11874 0.015625-0.23748 0.023438-0.35622 0.023438-0.36139 0-0.67114-0.048177-0.92928-0.14453-0.25813-0.096355-0.4698-0.24219-0.63501-0.4375-0.1652-0.19531-0.28524-0.44271-0.36009-0.74219-0.074859-0.29948-0.11229-0.65234-0.11229-1.0586v-4.1094h-0.97574c-0.07744 0-0.13939-0.041666-0.18586-0.125s-0.069696-0.21875-0.069696-0.40625c0-0.098959 0.006453-0.18229 0.01936-0.25s0.029685-0.1237 0.050336-0.16797c0.020651-0.044271 0.047754-0.075521 0.081312-0.09375 0.033557-0.018229 0.070986-0.027344 0.11229-0.027344h0.968v-1.6719c0-0.036458 0.009035-0.070312 0.027104-0.10156 0.01807-0.03125 0.051626-0.058594 0.10067-0.082031 0.049045-0.023438 0.11487-0.040365 0.19747-0.050781s0.18586-0.015625 0.30976-0.015625c0.12907 0 0.2349 0.0052083 0.3175 0.015625 0.082602 0.010417 0.14714 0.027344 0.1936 0.050781 0.046464 0.023438 0.080021 0.050781 0.10067 0.082031 0.020651 0.03125 0.030976 0.065104 0.030976 0.10156v1.6719h1.7889c0.041301 0 0.07744 0.0091145 0.10842 0.027344 0.030976 0.018229 0.058079 0.049479 0.081311 0.09375 0.023232 0.044271 0.040011 0.10026 0.050336 0.16797 0.010326 0.067709 0.015488 0.15104 0.015488 0.25 0 0.1875-0.023232 0.32292-0.069696 0.40625s-0.10842 0.125-0.18586 0.125h-1.7889v3.9219c0 0.48438 0.070986 0.85026 0.21296 1.0977 0.14197 0.2474 0.39623 0.37109 0.76278 0.37109 0.11874 0 0.22458-0.011719 0.3175-0.035156 0.092928-0.023438 0.17553-0.048177 0.24781-0.074219 0.072278-0.026042 0.13423-0.050781 0.18586-0.074219 0.051627-0.023438 0.09809-0.035156 0.13939-0.035156 0.025813 0 0.050335 0.0065104 0.073568 0.019531 0.023232 0.013021 0.041301 0.03776 0.054207 0.074219 0.012907 0.036458 0.024523 0.085937 0.034848 0.14844 0.010326 0.0625 0.015488 0.14062 0.015488 0.23438zm5.5877-1.3984c0 0.35938-0.065823 0.67969-0.19747 0.96094-0.13165 0.28125-0.31879 0.51823-0.56144 0.71094-0.24265 0.19271-0.53175 0.33854-0.86732 0.4375s-0.7047 0.14844-1.1074 0.14844c-0.24781 0-0.484-0.019531-0.70857-0.058594-0.22458-0.039063-0.42592-0.088541-0.60403-0.14844-0.17811-0.059896-0.32912-0.1224-0.45302-0.1875-0.1239-0.065104-0.21425-0.1237-0.27104-0.17578-0.05679-0.052084-0.098091-0.125-0.1239-0.21875s-0.03872-0.22135-0.03872-0.38281c0-0.098959 0.005163-0.18229 0.015488-0.25s0.023232-0.1224 0.03872-0.16406 0.037429-0.071614 0.065824-0.089844c0.028394-0.018229 0.060661-0.027344 0.096799-0.027344 0.05679 0 0.14068 0.035156 0.25168 0.10547 0.111 0.070313 0.24781 0.14714 0.41043 0.23047s0.35493 0.16016 0.57692 0.23047c0.222 0.070313 0.47754 0.10547 0.76665 0.10547 0.21683 0 0.41301-0.023437 0.58854-0.070312s0.32783-0.11588 0.45689-0.20703c0.12907-0.091146 0.22845-0.20703 0.29814-0.34766s0.10454-0.30729 0.10454-0.5c0-0.19792-0.050336-0.36458-0.15101-0.5s-0.23361-0.25521-0.39881-0.35938c-0.16521-0.10417-0.35106-0.19661-0.55757-0.27734-0.20651-0.08073-0.41946-0.16536-0.63888-0.25391-0.21941-0.088542-0.43366-0.1888-0.64275-0.30078-0.20909-0.11198-0.39623-0.2487-0.56144-0.41016-0.1652-0.16146-0.29814-0.35417-0.39881-0.57812s-0.15101-0.49219-0.15101-0.80469c0-0.27604 0.052917-0.54036 0.15875-0.79297 0.10584-0.25261 0.26458-0.47396 0.47625-0.66406 0.21167-0.19011 0.47625-0.34245 0.79376-0.45703 0.3175-0.11458 0.68792-0.17188 1.1113-0.17188 0.18586 0 0.37171 0.015625 0.55757 0.046875s0.35364 0.070312 0.50336 0.11719c0.14972 0.046875 0.27749 0.097656 0.38333 0.15234 0.10583 0.054688 0.18586 0.10286 0.24006 0.14453s0.090346 0.078125 0.10842 0.10938c0.01807 0.03125 0.030976 0.066406 0.03872 0.10547 0.007744 0.039063 0.015488 0.087239 0.023232 0.14453s0.011616 0.1276 0.011616 0.21094c0 0.088542-0.003872 0.16536-0.011616 0.23047-0.007744 0.065104-0.02065 0.11849-0.03872 0.16016-0.018069 0.041667-0.04001 0.071614-0.065824 0.089844-0.025813 0.018229-0.054207 0.027344-0.085183 0.027344-0.046464 0-0.11358-0.028646-0.20134-0.085938-0.087766-0.057292-0.20134-0.11849-0.34074-0.18359-0.13939-0.065104-0.3033-0.1263-0.49174-0.18359-0.18844-0.057292-0.40398-0.085938-0.64662-0.085938-0.21683 0-0.40785 0.024739-0.57305 0.074219-0.16521 0.049479-0.30072 0.11979-0.40656 0.21094-0.10583 0.091146-0.18586 0.19922-0.24006 0.32422s-0.081311 0.26042-0.081311 0.40625c0 0.20313 0.051626 0.3737 0.15488 0.51172 0.10325 0.13802 0.23748 0.25911 0.40269 0.36328 0.16521 0.10417 0.35364 0.19792 0.56531 0.28125 0.21167 0.083334 0.42721 0.16927 0.64662 0.25781 0.21941 0.088542 0.43624 0.1875 0.65049 0.29688s0.40398 0.24219 0.56918 0.39844c0.1652 0.15625 0.29814 0.34375 0.39881 0.5625s0.15101 0.47917 0.15101 0.78125z" fill="#999"/>
</g>
</svg>
