<?xml version="1.0" encoding="UTF-8"?>
<svg viewBox="0 0 32 32" version="1.1" xmlns="http://www.w3.org/2000/svg" xmlns:xlink="http://www.w3.org/1999/xlink">
    <defs>
        <path d="M26.1093199,4.17192227 C26.3905692,4.20317244 26.6093189,4.32817166 26.7655683,4.54692138 C26.9218177,4.7656711 26.9999428,5.00004554 26.9999428,5.2500447 C26.9999428,9.18753532 26.0155701,12.8437766 24.0468248,16.2187686 C22.1093297,19.5000107 19.4999607,22.1093797 16.2187185,24.0468749 C12.8437265,26.0156202 9.18748525,26.9999928 5.24999464,26.9999928 C4.99999547,26.9999928 4.76562103,26.9218678 4.54687131,26.7656184 C4.3281216,26.609369 4.20312237,26.3906193 4.17187221,26.10937 L3.04687489,21.2343816 C2.98437528,20.9843824 3.01562472,20.7343825 3.14062466,20.4843834 C3.26562461,20.2343842 3.45312416,20.0625094 3.70312332,19.9687596 L8.95311081,17.718765 C9.17186052,17.6250152 9.39842224,17.6093905 9.63279669,17.6718901 C9.86717113,17.7343897 10.0781081,17.8593896 10.2656077,18.0468892 L12.5624772,20.8593825 C14.4062226,20.0156345 16.0390317,18.8750125 17.460903,17.4375156 C18.8827744,16.0000188 20.0155844,14.3750232 20.8593324,12.5625273 L18.0468391,10.2656577 C17.8593396,10.0781582 17.7343396,9.8672212 17.67184,9.63284675 C17.6093404,9.39847231 17.6249651,9.17191059 17.7187149,8.95316087 L19.9687095,3.70317339 C20.0624593,3.45317423 20.2343341,3.26567467 20.4843333,3.14067473 C20.7343325,3.01567479 20.9843324,2.98442534 21.2343315,3.04692496 L26.1093199,4.17192227 Z" id="path-1"></path>
        <filter x="-22.9%" y="-22.9%" width="154.2%" height="154.2%" filterUnits="objectBoundingBox" id="filter-2">
            <feOffset dx="1" dy="1" in="SourceAlpha" result="shadowOffsetOuter1"></feOffset>
            <feGaussianBlur stdDeviation="2" in="shadowOffsetOuter1" result="shadowBlurOuter1"></feGaussianBlur>
            <feColorMatrix values="0 0 0 0 0   0 0 0 0 0   0 0 0 0 0  0 0 0 0.3 0" type="matrix" in="shadowBlurOuter1"></feColorMatrix>
        </filter>
    </defs>
    <g id="Page-5-Copy" stroke="none" stroke-width="1" fill="none" fill-rule="evenodd">
        <g id="phone">
            <use fill="black" fill-opacity="1" filter="url(#filter-2)" xlink:href="#path-1"></use>
            <use fill="#FFFFFF" fill-rule="evenodd" xlink:href="#path-1"></use>
        </g>
    </g>
</svg>