<?xml version="1.0" encoding="UTF-8"?>
<svg version="1.1" viewBox="0 0 172 47" xmlns="http://www.w3.org/2000/svg">
<g fill="none" fill-rule="evenodd">
<g transform="translate(-474 -886)" fill="#fff">
<path d="m480.67 886.12c-3.9821 0.2729-6.6723 1.023-6.6723 1.8603 0 0.1796 0.372 0.7376 0.8268 1.2401 0.7813 0.8634 0.8998 0.8656 2.1578 0.0404 1.0745-0.7048 2.573-0.8731 7.7726-0.8731 3.5427 0 7.227 0.1155 8.1873 0.2566 2.0738 0.3049 2.7158-0.6634 1.0359-1.5625-1.5792-0.8452-8.1171-1.3177-13.308-0.9618m-0.4043 8.5567c-3.3124 10.56-6.3419 21.784-6.0703 22.492 0.5739 1.4956 1.8147 0.7446 2.3847-1.4433 1.2019-4.6136 4.2769-14.679 5.9731-19.552 1.8453-5.3014 1.8927-6.5022 0.2569-6.5022-0.7827 0-1.2828 0.984-2.5444 5.0056m7.4031 4.8116c-2.8431 1.8832-4.5572 4.0231-5.5013 6.868-0.3748 1.1294-0.9795 2.4175-1.3438 2.8624-0.5687 0.6945-0.29 1.1118 1.9722 2.952 1.8469 1.5024 3.1128 2.1409 4.234 2.1356 2.0034-0.0095 4.1076-1.0442 4.3152-2.1217 0.1371-0.7123-0.1817-0.7583-2.4268-0.3503-4.1741 0.7587-6.4595-1.2681-3.0312-2.6881 2.3734-0.9831 8.6462-7.1809 8.6462-8.5429 0-1.2843-1.774-2.7179-3.3633-2.7179-0.5946 0-2.1702 0.7213-3.5012 1.6029m4.2975 1.2094c0 0.7353-6.4539 6.4287-7.2873 6.4287-1.4686 0 0.6276-3.1657 3.5981-5.4338 2.464-1.8814 3.6892-2.2118 3.6892-0.9949m43.964 0.8186c-1.8771 1.4766-1.8122 3.9797 0.1874 7.2295 1.5339 2.4929 1.8212 3.725 1.2286 5.2693-0.4797 1.2499-2.0218 0.9629-2.6885-0.5003-0.3289-0.7218-0.828-1.1703-1.1092-0.9965-1.6437 1.0159 0.7706 4.8759 3.0498 4.8759 1.6019 0 4.1398-2.1881 4.1398-3.5691 0-0.4742-0.9169-2.666-2.0377-4.8706-1.593-3.1338-1.9251-4.2187-1.5221-4.9719 0.5688-1.0627 1.6005-1.2238 3.0093-0.4698 0.6501 0.3479 1.208 0.2721 1.8914-0.2571 0.9407-0.7283 0.9335-0.7809-0.2426-1.777-1.5678-1.3277-4.1918-1.311-5.9062 0.0376m-38.969 1.4208c-1.5793 1.0413-3.8066 3.8119-4.5226 5.6256-0.3207 0.8123-0.2263 1.7527 0.3029 3.0194 0.7338 1.7561 0.8609 1.8272 2.8002 1.5671 1.3912-0.1866 2.2195-0.046 2.6279 0.4461 0.9363 1.1282 2.076 0.8549 3.962-0.95l1.7434-1.6685 0.7822 1.1551c0.9306 1.3741 2.0241 1.471 3.3241 0.2945 0.729-0.6598 1.0919-0.7197 1.5549-0.2567 1.0127 1.0127 2.4537 0.6813 4.0713-0.9362 1.9255-1.9255 2.4879-1.9397 2.4879-0.0629 0 1.7711 1.3742 3.2157 2.0377 2.1421 0.3864-0.6251 0.194-6.1147-0.2662-7.5982-0.4169-1.344-2.1364-0.5718-3.7156 1.6686-1.6096 2.2835-2.6764 2.9383-2.6764 1.6428 0-0.3671 0.2617-0.9291 0.5816-1.249 0.7881-0.788 0.1789-2.1907-0.9514-2.1907-0.5611 0-1.3897 0.8942-2.141 2.3103-0.6741 1.2706-1.54 2.3102-1.9243 2.3102-0.952 0-0.8775-1.1456 0.1963-3.0165 0.7238-1.2612 0.7702-1.6842 0.2425-2.2119-0.9589-0.959-2.3105 0.082-2.9335 2.2593-0.6398 2.236-1.4644 3.241-3.4867 4.2498-2.2894 1.1422-2.793 0.2431-1.1873-2.1198 0.7348-1.0814 1.3375-2.2013 1.3392-2.4888 0.0017-0.2874 0.3567-1.2004 0.7887-2.0289 0.4321-0.8286 0.6689-1.8104 0.5264-2.1819-0.3822-0.9958-3.9042-0.8255-5.5642 0.2691m1.1635 2.7774c-0.0198 1.2311-2.0564 5.2986-2.7166 5.4258-1.3359 0.2572-1.1-1.8251 0.4346-3.8371 1.0567-1.3854 2.2926-2.2458 2.282-1.5887m143.4-1.5371c-2.944 3.644-8.1834 5.9903-6.0268 2.699 1.0242-1.5632 0.2918-2.8304-1.6361-2.8304-1.4212 0-2.0455 1.7-1.5444 4.2055 0.4405 2.2025 1.21 2.982 2.9438 2.982 1.8023 0 1.9469 1.0706 0.359 2.6585-0.6151 0.6151-2.9141 4.7056-5.109 9.0901-2.9802 5.9533-3.851 8.1399-3.4393 8.636 1.415 1.7049 2.4657 0.6348 5.0476-5.1409 2.202-4.9258 6.6127-12.289 10.554-17.619 2.9377-3.9724 3.3119-5.0168 1.9803-5.5277-1.4201-0.545-2.1689-0.3424-3.1294 0.8465m-72.334 0.0825c-0.8678 0.3779-2.3279 1.6973-3.2445 2.9319-1.3451 1.8117-1.6145 2.579-1.3961 3.977 0.1488 0.9527 0.6628 2.1656 1.1421 2.6953 1.1432 1.2632 3.8818 1.2563 5.0302-0.0127 1.0413-1.1506 0.3509-1.8434-1.3992-1.4041-1.594 0.4-2.5867-0.3464-2.1771-1.637 0.5308-1.6721 3.1525-4.1973 4.3579-4.1973 1.4876 0 1.9385-1.4116 0.7407-2.3186-1.1685-0.8849-1.1029-0.8841-3.054-0.0345m-25.457 1.2502c-1.5275 1.3648-1.5688 1.5021-0.8837 2.9358 1.0478 2.1926 2.6423 2.1935 5.3152 0.0033 1.2325-1.0099 2.466-1.8362 2.7412-1.8362 0.6848 0 1.1274 1.3019 1.1051 3.2507-0.0157 1.3768-0.4263 1.9023-2.6751 3.4233-3.173 2.1463-6.3451 6.148-7.1218 8.9844-0.5865 2.1421-0.2685 6.8958 0.5657 8.4545 0.2656 0.4963 1.1639 1.1844 1.9961 1.5291 1.9438 0.8051 3.1688 0.1833 5.2218-2.6508 3.6283-5.0088 6.0058-19.295 3.8916-23.383-0.9475-1.8321-1.5455-2.0574-5.5918-2.1066-2.5436-0.031-3.1882 0.1661-4.5643 1.3957m8.2964 8.9859c0 0.3825-0.5395 2.866-1.1989 5.5189-1.2102 4.8684-2.0527 6.8629-3.8703 9.1619-0.8487 1.0736-1.1147 1.1585-1.8131 0.5789-1.1633-0.9654-1.1125-6.4496 0.0799-8.6294 1.1258-2.058 5.6693-7.3259 6.3186-7.3259 0.2661 0 0.4838 0.313 0.4838 0.6956m26.079-8.7242c-3.4745 1.5421-5.3116 5.0509-3.9737 7.5895 0.8255 1.5664 1.4583 1.9618 3.1547 1.9714 3.4917 0.0198 5.5431-2.332 5.5431-6.3549 0-1.8016-0.2499-2.4816-1.141-3.1058-1.3212-0.9254-1.7-0.936-3.5831-0.1002m2.6705 3.3538c0 1.2302-2.8473 4.3246-3.7139 4.0361-1.2939-0.4309-0.9853-2.023 0.6804-3.5101 1.935-1.7276 3.0335-1.9181 3.0335-0.526m4.3768-3.5603c-0.1674 0.2708-0.4389 1.9458-0.6034 3.722-0.2643 2.8553-0.1728 3.3433 0.7896 4.2095 0.8952 0.8059 1.3099 0.879 2.3354 0.4118 0.6859-0.3125 2.0133-0.4482 2.9499-0.3015 1.0476 0.164 2.0765-0.0122 2.6737-0.4577 0.745-0.556 1.2512-0.5943 2.1779-0.165 0.6639 0.3076 1.209 0.7248 1.2112 0.9271 0.0022 0.2022-0.9042 1.7729-2.0143 3.4903-2.4712 3.8235-3.0343 5.941-1.8854 7.0899 0.7211 0.7211 0.9067 0.73 1.4946 0.0716 0.7118-0.7971 2.3075-4.3532 3.689-8.2206 0.979-2.741 4.7962-7.4527 5.4821-6.7668 0.7304 0.7304-0.3515 2.9278-2.1249 4.3157-1.7934 1.4035-1.7044 2.9947 0.1667 2.9813 1.4573-0.0104 2.1369-0.4849 3.6694-2.5622 1.49-2.0196 1.7657-5.6297 0.5095-6.6723-1.9216-1.5947-5.3582-0.1479-6.7924 2.8597-0.9487 1.9894-1.9196 2.0705-1.9603 0.1638-0.0558-2.6139-2.083-3.4449-3.493-1.4318l-0.7543 1.0769-0.5764-1.0769c-0.8487-1.5859-2.43-1.3426-3.3944 0.5222-0.6084 1.1765-0.9783 1.4478-1.3996 1.0265-0.4214-0.4214-0.3987-1.0541 0.0859-2.3942 0.5148-1.4237 0.5236-1.9841 0.0401-2.5666-0.7074-0.8524-1.8291-0.9769-2.2766-0.2527m31.051 0.51c-0.4212 0.2722-1.2626 0.3703-1.8699 0.2178-1.3457-0.3377-4.071 0.9956-4.7932 2.345-1.5015 2.8057 0.4237 6.6089 3.0011 5.9285 1.1742-0.3099 3.4611-0.6079 5.5957-0.729 0.3599-0.0205 0.897-0.6725 1.1934-1.449l0.5389-1.4118 1.0314 1.4118c1.2763 1.7472 2.4767 1.7853 4.4314 0.1405 1.5002-1.2624 1.5174-1.2642 2.4292-0.2567 1.1004 1.2159 1.9479 1.2865 2.8207 0.2349 0.5306-0.6393 0.4731-0.9719-0.3187-1.8469-0.5313-0.587-0.8952-1.6064-0.8089-2.2654 0.1025-0.7817-0.1993-1.3888-0.8681-1.7468-1.439-0.7701-1.382-0.8025-3.178 1.8079-1.0499 1.5259-1.7972 2.1805-2.1204 1.8573-0.3232-0.3231-0.2689-0.8676 0.1539-1.5446 0.5307-0.8498 0.5268-1.1978-0.0207-1.8574-1.4018-1.6891-3.1149-0.3189-3.1149 2.4915 0 0.9991-0.2624 1.3172-1.0866 1.3172-0.9268 0-1.0359-0.2077-0.7419-1.4118 0.6761-2.7682 0.5834-3.4605-0.4818-3.5967-0.5647-0.0722-1.3714 0.0915-1.7926 0.3637m-1.3464 4.3561c-0.14 0.3647-0.8271 0.9239-1.527 1.2428-1.0553 0.4809-1.328 0.4353-1.5975-0.2671-0.4516-1.1766 1.7659-2.9774 2.7057-2.1974 0.3702 0.3073 0.5587 0.857 0.4188 1.2217"/>
</g>
</g>
</svg>
