<?xml version="1.0" encoding="UTF-8"?>
<svg version="1.1" viewBox="0 0 21 21" xmlns="http://www.w3.org/2000/svg">
<g fill="none" fill-rule="evenodd">
<path d="m18.75 0c0.625 0 1.1562 0.21875 1.5937 0.65625s0.65625 0.96875 0.65625 1.5937v16.5c0 0.625-0.21875 1.1562-0.65625 1.5937s-0.96875 0.65625-1.5937 0.65625h-16.5c-0.625 0-1.1562-0.21875-1.5937-0.65625s-0.65625-0.96875-0.65625-1.5937v-16.5c0-0.625 0.21875-1.1562 0.65625-1.5937s0.96875-0.65625 1.5937-0.65625h16.5zm-12.187 13.5c0.25 0 0.45312-0.14062 0.60937-0.42187l2.3437-4.125-1.5-2.5781c-0.15625-0.28125-0.35937-0.42187-0.60937-0.42187h-2.1562c-0.15625 0-0.26562 0.046875-0.32812 0.14062-0.0625 0.09375-0.046875 0.20312 0.046875 0.32812l1.4531 2.5312-2.2969 4.0781c-0.0625 0.125-0.0625 0.23437 0 0.32812s0.15625 0.14062 0.28125 0.14062h2.1562zm10.312-10.031c0.0625-0.125 0.0625-0.23437 0-0.32812s-0.15625-0.14062-0.28125-0.14062h-2.2031c-0.21875 0-0.40625 0.14062-0.5625 0.42187l-4.875 8.5312 3.0937 5.625c0.15625 0.28125 0.35937 0.42187 0.60937 0.42187h2.2031c0.125 0 0.21875-0.046875 0.28125-0.14062s0.0625-0.20312 0-0.32812l-3.0937-5.5781 4.8281-8.4844z" fill="#000"/>
</g>
</svg>
